/* XPM */
static char *result[] = {
/* columns rows colors chars-per-pixel */
"64 64 181 2 ",
"   c #52664B",
".  c #89A369",
"X  c #4B5E47",
"o  c #566A4D",
"O  c #869F67",
"+  c #4F6249",
"@  c #829B65",
"#  c #8DA76B",
"$  c #91AB6D",
"%  c #566E50",
"&  c #526A4E",
"*  c #89A76C",
"=  c #8DAB6E",
"-  c #4F664C",
";  c #567254",
":  c #58331D",
">  c #583721",
",  c #85A36A",
"<  c #8DAF72",
"1  c #552F1B",
"2  c #512B19",
"3  c #55331F",
"4  c #583B24",
"5  c #89AB70",
"6  c #563821",
"7  c #526E52",
"8  c #766456",
"9  c #54361D",
"0  c #786759",
"q  c #56341D",
"w  c #5A3C25",
"e  c #766354",
"r  c #786657",
"t  c #583A22",
"y  c #52331A",
"u  c #746153",
"i  c #5C3E26",
"p  c #3C2615",
"a  c #3E2716",
"s  c #3C2413",
"d  c #3D2615",
"f  c #3B2414",
"g  c #5A3822",
"h  c #614128",
"j  c #5F4027",
"k  c #67452A",
"l  c black",
"z  c #69462B",
"x  c #007D18",
"c  c #007517",
"v  c #00941D",
"b  c #008019",
"n  c #006C15",
"m  c #00921D",
"M  c #007717",
"N  c #006F16",
"B  c #6E4A2D",
"V  c #006113",
"C  c #006614",
"Z  c #006A15",
"A  c #00871A",
"S  c #009A1E",
"D  c #00AB22",
"F  c #00831A",
"G  c #00891B",
"H  c #634329",
"J  c #006413",
"K  c #008C1B",
"L  c #006714",
"P  c #008219",
"I  c #008F1C",
"U  c #008E1C",
"Y  c #00841A",
"T  c #503017",
"R  c #442B18",
"E  c #00A622",
"W  c #008D1C",
"Q  c #00A121",
"!  c #4B301B",
"~  c #00A421",
"^  c #009F20",
"/  c #007E19",
"(  c #00A020",
")  c #00941E",
"_  c #006814",
"`  c #00931D",
"'  c #006B15",
"]  c #00A521",
"[  c #007317",
"{  c #006E16",
"}  c #00991F",
"|  c #00A822",
" . c #00A321",
".. c #9A4704",
"X. c #8A3701",
"o. c #B04807",
"O. c #AD4707",
"+. c #AD4507",
"@. c #AC4607",
"#. c #AF4807",
"$. c #924302",
"%. c #5E3F27",
"&. c #5A3B23",
"*. c #8F4203",
"=. c #7F3A02",
"-. c #A14D09",
";. c #D3670E",
":. c #D0650E",
">. c #CF650E",
",. c #DC6D13",
"<. c #DB6D14",
"1. c #C9600A",
"2. c #B0550A",
"3. c #974603",
"4. c #813C03",
"5. c #A54F0A",
"6. c #D96B13",
"7. c #D86B12",
"8. c #D46913",
"9. c #EC6F09",
"0. c #F2720A",
"q. c #A04D09",
"w. c #8C4103",
"e. c #A24E09",
"r. c #D76A12",
"t. c #D66A13",
"y. c #E96E0A",
"u. c #EF710A",
"i. c #F1710A",
"p. c #462C19",
"a. c #9E4B08",
"s. c #DB6C13",
"d. c #ED6F09",
"f. c #CC640F",
"g. c #EF7009",
"h. c #D1660F",
"j. c #863D02",
"k. c #56371E",
"l. c #9F4C09",
"z. c #C9620E",
"x. c #D7690F",
"c. c #893F02",
"v. c #D4680F",
"b. c #CC640E",
"n. c #DD6D13",
"m. c #583621",
"M. c #587355",
"N. c #3D2212",
"B. c #D0660E",
"V. c #391E10",
"C. c #87A46B",
"Z. c #CD640E",
"A. c #CB630D",
"S. c #B0540A",
"D. c #563420",
"F. c #90AF70",
"G. c #8A3F02",
"H. c #A95009",
"J. c #D96C13",
"K. c #567657",
"L. c #5D3D24",
"P. c #A8510A",
"I. c #9C4A08",
"U. c #7F6B5A",
"Y. c #954402",
"T. c #843C00",
"R. c #A84F07",
"E. c #AE5208",
"W. c #924201",
"Q. c #3B2719",
"!. c #37271C",
"~. c #924000",
"^. c #34251B",
"/. c #382618",
"(. c #482E1A",
"). c #4B624A",
"_. c #402917",
"`. c #4E6A50",
"'. c #90B374",
"]. c #552B18",
"[. c #91AF70",
/* pixels */
"  . X .   o o o o       o o o o o   o o   O O +   o   .     O @ O + o o o   o o o o o o     o o o o o   O @ @ O   o o o       o ",
"  O O O   o o o + # . . + o o o + #   o   . @ O . + + .     O @ O .   o   # + o o   o   # .         o   O @ O O   o   + . O #   ",
"  . @ O   o o   $ + + O .   o + . O   o o + . O O O O .     O O X .   o   . . +   #   o X # + . O #     O . X #   + . . @ . + o ",
"o + . O   o     + o   O O     . @ O   o o o     + . . + o   . . + #   o o + . . X .     # X   . . + o   . + o     # . X . + o o ",
"o o + #     # O . +   O .   + O @ .   o o o o     +   o o o     o   o o o o + . O O     O .   + + o o   #   o     +     #   o o ",
"o o o + o o + . @ . + # +   . @ . + o o       . . #   % % % o o % % % % % o o + . O     . . + . .   o o +   + . . # + o     o o ",
"o o   # + o o + O O + & % & * O + o % & = = - = +   ; : > : ; ; : > > > : ; % % - .   o     + O * & % & = O O O X + $ +   $ + o ",
"o o + O .   o   O , < 1 > > 2 < & ; : > 3 3 > 1 ; ; : 4 4 4 > > 4 4 4 4 4 > > > 1 <         = 5 2 > > > 2 5 , O #   + $   X #   ",
"o + . O O   o   < 2 3 4 4 6 4 3 > > 4 4 4 4 4 4 > > 4 4 6 4 4 4 4 4 4 4 4 4 4 4 4 1 7 = = 7 1 3 4 4 4 4 4 3 1 7 & o   + + . .   ",
"  . . X #   o % 1 4 4 4 6 8 9 4 4 4 4 4 4 4 4 4 4 4 4 9 0 9 4 4 4 4 4 4 4 4 4 4 4 6 q 3 3 > 4 w w w w w w 4 4 > : & # O O . + o ",
"  # + o   o o ; > 4 4 4 6 e r t w w w w w 4 4 4 4 4 6 0 y 0 6 4 w w w w w w 4 4 6 u 8 6 4 4 i p a a a a a i 4 4 > ; + . . + o o ",
"    o o o o % : 4 4 w w i s s a a a a a d i w w 4 4 4 6 4 6 w i p a a a a a i w 6 8 9 4 4 w f i w w w i a d i 4 4 : %     o o   ",
".   o o o o % > w i p a a a i w w w w w i p a d w 4 4 4 4 w p d i w w w i a a d i t 4 4 4 4 w 4 4 4 4 4 w i f w 4 > % o o o   . ",
"O + o o o o % g p d i w w w 4 4 6 4 4 4 4 w w w 4 4 4 4 4 4 w h j 4 4 4 4 w w i p d w 4 4 w w w w w w 4 4 4 w 4 4 > % o o o + O ",
"O . + o o o & 1 w w 4 4 4 4 4 9 0 6 4 4 w w w w w w w w w 4 k l l j 4 4 j j 4 4 w w 4 w i a a a a a a i w w w 4 4 > ; o o + . O ",
"+ O .   o + # 5 1 4 4 4 4 4 6 0 9 w w i p a a a a a a a d z l x l j 4 k l l j 4 w w i a a a i w w i a a a a d w 4 4 : %   . . + ",
"  O O     # X # 7 > 4 4 4 4 4 6 w p a d i w w w w h h w h l c v l j k l b l j w p a a a i w 6 4 4 4 w w w w w 4 4 4 > %   . + o ",
"  . .     #   + % > 4 4 w w w w w i i i w w w w j l l k j l n m l k l M N l j 4 w w w w 6 9 0 6 4 4 4 4 4 4 4 4 4 4 1 %   #   o ",
"o     o   +   # - > 4 i p a a a a a a a a a a d h l b l B l n m l k l n N l k 4 4 4 4 6 8 8 9 4 w w w w w 4 4 4 4 2 <   o   o   ",
"  o o + . . + . < 3 w f i w w w w w w w w w w w j l N M l l n m l B l v V M l j 4 4 4 4 t t w i a a a a a i w 4 1 5 O + o o   . ",
"#   + . @ . + & 1 4 6 w 4 4 4 4 w w w w w w w w j l N C c l Z A S l D F G n l j 4 4 4 w p a a a a i w i a a d g 7 O O .   o   . ",
"    # O . X $ & > 9 0 9 4 4 4 i p a a a a a a a H l N J K L G P I l U Y A n l j 4 4 4 4 w w w w w 4 4 4 w w w > & . X #   o o   ",
"o o       o   ; q 0 T 0 6 4 i d i w w w w w i a R l M J A A P E b W P Y G c l h w w w w 4 4 4 4 4 4 4 4 4 4 4 > 7 #     o o o o ",
"          o % : 4 9 0 9 4 w p a w 4 4 4 4 4 4 w w k l n G Y b Q Q Q E Y Z l ! a a a a a i w w 4 4 4 4 4 4 4 4 4 : & o o         ",
"O O O O . + % > 4 4 6 w w w i i w w w w w w 4 4 4 j l M V Y ~ ^ ^ Q / G c l h w w t i a a a a i w 4 4 6 4 4 4 4 > ; o   # O O O ",
"@ @ @ O O # & : 4 4 i p a a a a a a a a a a i 4 6 4 k l n Y Q ^ ^ ( ) _ l k 4 4 9 0 6 w w i a a d w 9 0 9 4 4 4 4 : %   + . O @ ",
"O O O X     o ; > w f i w w w w w w w w i a d t 0 9 j l c A Q ^ ^ ( ` ' l j 4 6 0 9 4 4 4 4 w w w 6 0 y 0 6 4 4 4 > - #     + . ",
"  + . . +   o % > 4 w 4 4 4 4 4 4 4 4 4 4 w w 4 9 0 6 k l L ] ( ^ Q ` [ l j 4 4 6 4 w w w w w 4 4 4 6 4 6 4 4 4 4 1 = .   o o   ",
"  o + . . #   % > 4 4 4 4 w w w 4 4 w w w w 4 4 4 6 j k l { } ) | )  .l B j 4 4 4 i p a a a d i w w w w w 4 4 4 > 7 +   o o     ",
"# +   +     o % : 4 4 w i a a a i i a a a a i w w k l l ..X.o.O.+.@.#.$.l l k 4 w f i w w w i p a a a a a i w 4 1 * # + o   # . ",
"+ . O .   o o o ; > w p a a %.a a a a &.i a a a R l ..*.=.-.;.:.>.,.<.1.2.3.l j 4 w 4 4 4 4 4 w w w w i a a d g 7 # X $   o   + ",
"+ O @ O   o     % > 4 w w w 4 w w w t 0 9 w w w h l *.4.5.;.6.7.7.8.9.0.q.w.l h w w w w 4 4 4 4 4 4 4 4 w w w > % +   +   o + . ",
". O O .   + # # & > w w w 4 4 4 4 4 4 9 0 6 4 4 j l *.4.e.:.7.r.t.9.y.u.q.w.l R a a a d i 4 4 4 4 4 4 4 4 4 4 > 7 . . . . + # O ",
"          # X + % g p a a i 4 4 4 4 w w t w w w h l *.4.5.;.7.r.t.9.y.i.q.w.l h w w w i d i w 4 4 4 4 4 4 4 4 4 1 < + X .       ",
"  o o   + O O # & > w i a d w 4 w i a a a a a a p.l ..*.=.a.s.r.r.8.d.f.5.3.l j 4 4 4 t a a a i w w 4 4 4 4 4 4 4 1 & . .   o   ",
"# +   . O @ . + ; > 4 4 w w 4 i p a a i w t w i a ! l l w.-.,.r.r.t.g.h.j.l k 4 4 4 6 8 k.i a a a d w 4 4 4 4 4 4 : & # + o + # ",
"+ $ + O O . + % : 4 4 4 4 4 w f i w w 4 9 0 6 4 w h l ..=.l.>.7.r.7.z.x.c.l h w w w 6 u u 6 w i i i w w w w w 4 1 ; o   o   $ + ",
"o     # +   o % g w w w w w 4 w 4 4 4 6 0 9 4 4 4 j l w.5.v.b.7.r.r.n.a.w.l R a a a w 9 8 6 i p a a a a a a a m.< + o o o o   o ",
"      +   o o M.N.a a a a a w 4 w w w w t w w 4 4 j l w.e.B.b.6.r.7.>.e.w.l h w i d w 4 6 w f i w w w w w i a V.C.#         o   ",
". O O O #   & : w w w w i d w i p a a a a a a i 4 j l 3.5.v.Z.A.7.7.;.S.3.l j 4 4 i w w w w i 4 4 4 4 4 4 4 w D.< + + . O . + # ",
"+ . @ . +   F.3 4 4 4 4 4 w w f i w w w w i a a i w k l G.l.B.b.7.,.H.l l z w w i a a a a a a i w 4 4 6 4 4 4 4 1 - . @ @ .     ",
"  X . + o o & : 4 4 4 4 4 4 4 i w w w 4 4 4 i a a d h l w.e.B.b.J.>.e.3.l R a a a a i w w i a a d w 6 0 9 4 4 4 3 = O @ . + o   ",
"O O .   o o o K.> 4 w w w w i p a a a i 4 6 4 w w w j l 3.5.v.Z.b.B.e.w.l h w w w w 4 4 4 w i i i w w k.0 6 4 4 > & X . + o   # ",
"O . +     o % : 4 w p a a a d i w i a d t 8 9 4 4 4 4 k l G.l.v.Z.v.5.3.l j 4 4 4 4 4 w i a a a a a a a &.w w 4 : & # . + o o   ",
"      # . + & > 4 4 w t w w w 4 4 4 w w 6 u 8 6 4 4 6 L.l w.P.I.x.l.G.l k 4 4 4 4 4 w p a a i w w w i a a a d g 7 o + + # + o o ",
"o o o + O O * 2 4 4 9 0 6 4 4 w w w w w 4 6 6 4 4 6 8 U.l Y.T.P.R.E.W.l h 4 4 4 4 4 4 w w t 4 4 4 4 4 w w w w 3 = + # + O # + o ",
"o o     O @ @ < 3 6 0 9 4 4 i a a a a a i w w 4 4 w &.s p.Q.!.~.^./.Q.(.a i w 4 4 4 4 4 9 0 6 4 4 4 4 4 4 4 4 3 * X . + # X $   ",
"o + $ + . @ O ).> 4 6 4 4 w p a i w i a a a d i w p a a i i a Q.a i i a _.a d w 4 6 4 6 0 9 4 4 4 4 4 4 4 4 4 3 5 . O +   o + o ",
"  $ X o + O @ * 3 4 4 4 4 4 w w 4 4 4 w w w i f w w w w 4 4 w w w 4 4 w w w w 4 6 0 6 4 6 4 w w w w 4 4 4 4 4 4 1 - O #     #   ",
"o + $     O O , 1 4 4 4 4 4 4 4 w w w w w w 4 w 4 4 4 4 4 4 6 4 4 4 4 4 4 4 4 4 w t w w w i p a a a i w w 4 4 4 > & # + o   #   ",
"      o   . X . 7 : 4 4 4 w w i a a a a a d i w w w 4 4 4 6 0 9 4 4 4 4 4 w w i a a a a a d i w i a a a a i 4 4 > %       o +   ",
"O . + o   # + .   K.> 4 i p a a a i w w w i p a a a i 4 4 4 9 0 6 w w w i a a a a i w w w w 4 4 4 w w i a d w 4 > & + . # + # O ",
"@ @ . +   +   # & : 4 w f i w t t 4 4 4 4 4 w w i a d w 4 w w t i p a a a a %.i i w w 4 4 4 4 6 6 4 4 4 w w 4 4 1 * . . + o + O ",
"O @ @ O . #   + ; > 4 4 w 4 9 8 u 6 4 4 4 4 4 4 4 w w w i p a a d i w w w i p a a a a i 4 4 9 8 u 6 4 4 4 4 4 : `.# +   o o   . ",
"+ . O O X +   F.1 4 4 4 4 6 0 y 8 6 4 4 4 4 4 4 4 w i p d i w w w 4 4 4 4 4 w w w i a d w 6 0 y 8 6 4 4 4 4 > 7 $ + o   o o o   ",
"  + + . . #   - 1 4 4 4 4 4 6 4 6 4 4 4 4 4 4 4 w p d i w 4 4 4 4 > > 3 4 4 4 4 4 4 w w 4 4 6 4 q > 3 4 4 4 : %   o + #   o     ",
"O . + + +     # < 3 4 3 > > 3 > 4 4 > > 3 4 4 4 4 w g > 3 3 4 4 : ; & < 2 3 3 > > 4 > > 3 3 3 : ; & '.2 3 1 ; o o   . O   + . O ",
"O O . . #   o   & : 2 '.& - = 7 : 1 ; & '.1 > 3 3 1 ; & = < 2 : 7     O * * * & ; ].; - = , * &   o + * , * + o o + O O + # @ O ",
"      + + o o o o & [.+   . .   & =   o + % - * , *   o + + [.- # . + # + + #     [.+ $ X O . + # +   O @ O #     . @ O   + # + ",
"o o   . #   o o       o + # +   + . + + # + # @ @ O +   # +     + #       o   o o +   +   # +   O . + . O X   o + . O O       o ",
"o     # + o o   # . +   $ + + . O @ O O .   + . @ @ . + . # X # +   o + $   o   + . . #     o + O O   + . #     $ + + # + # + o ",
"  #       o o o + . . +   + . @ @ @ O . + o o + O O .     + . @ .   + $ X o + . O O X + o o   . O O   o + + o o   o o     O .   ",
"  .   + #   o o o + . # + # O O O . +   o       # +     o   O @ O + $ X $ + # O O O . #   o   # X #     . . +   o o o o   . .   ",
"  . + . O   o o o o     o           o o   . .     o   #     O @ O     o   o             o o o   o   o   O @ O .   o o o o     o "
};
