/* XPM */
static char *result[] = {
/* columns rows colors chars-per-pixel */
"64 64 242 2 ",
"   c #52664B",
".  c #89A369",
"X  c #4B5E47",
"o  c #566A4D",
"O  c #869F67",
"+  c #4F6249",
"@  c #829B65",
"#  c #8DA76B",
"$  c #91AB6D",
"%  c #566E50",
"&  c #526A4E",
"*  c #89A76C",
"=  c #8DAB6E",
"-  c #4F664C",
";  c #567254",
":  c #58331D",
">  c #583721",
",  c #85A36A",
"<  c #8DAF72",
"1  c #552F1B",
"2  c #512B19",
"3  c #55331F",
"4  c #583B24",
"5  c #89AB70",
"6  c #563821",
"7  c #5B371F",
"8  c #5B3B22",
"9  c #526E52",
"0  c #766456",
"q  c #54361D",
"w  c #5D3B20",
"e  c #34393D",
"r  c #33383C",
"t  c #5B381D",
"y  c #786759",
"u  c #293036",
"i  c #56341D",
"p  c #5A3C25",
"a  c #766354",
"s  c #786657",
"d  c #583A22",
"f  c #484848",
"g  c gray34",
"h  c #57361C",
"j  c #7B6758",
"k  c #59381F",
"l  c #5C3C23",
"z  c #2B3034",
"x  c #D0D0D0",
"c  c #603B1E",
"v  c #292D30",
"b  c #776251",
"n  c #5C3E26",
"m  c #3C2615",
"M  c #3E2716",
"N  c #3C2413",
"B  c #3D2615",
"V  c #36393B",
"C  c gray28",
"Z  c #555555",
"A  c #35383A",
"S  c #313538",
"D  c #35393D",
"F  c #40230D",
"G  c #2D2F31",
"H  c #CECECE",
"J  c #2F2F2F",
"K  c gray18",
"L  c gray81",
"P  c #292B2C",
"I  c #7B6452",
"U  c #3B2414",
"Y  c #3F2613",
"T  c #363A3E",
"R  c #565656",
"E  c gray21",
"W  c #333638",
"Q  c gray33",
"!  c #535557",
"~  c gray32",
"^  c #464646",
"/  c gray26",
"(  c #30363B",
")  c #5A3822",
"_  c #535353",
"`  c #5A5A5A",
"'  c black",
"]  c gray27",
"[  c #4C4C4C",
"{  c #444444",
"}  c #5A5C5E",
"|  c #373B3F",
" . c #373737",
".. c gray24",
"X. c gray72",
"o. c #C6C6C6",
"O. c #B7B7B7",
"+. c gray31",
"@. c #32393F",
"#. c #422611",
"$. c #383A3C",
"%. c gray25",
"&. c #C1C1C1",
"*. c LightGray",
"=. c gray76",
"-. c #2C3134",
";. c #5F3D21",
":. c #353A3E",
">. c gray22",
",. c #494949",
"<. c gray19",
"1. c #2F3133",
"2. c #442610",
"3. c #373A3C",
"4. c #343B41",
"5. c #462C19",
"6. c #543A25",
"7. c #503017",
"8. c #6A482C",
"9. c #69462B",
"0. c #382416",
"q. c #93511E",
"w. c #8F4F1D",
"e. c #4E3725",
"r. c #5F4027",
"t. c #692F00",
"y. c #67452A",
"u. c #614128",
"i. c #5D4029",
"p. c #8B4D1D",
"a. c #AC6023",
"s. c #B66423",
"d. c #3D2818",
"f. c #622B00",
"g. c #945321",
"h. c #844A1D",
"j. c #905120",
"k. c #652D00",
"l. c #5A2800",
"z. c #612B00",
"x. c #552500",
"c. c #8B4F20",
"v. c #B16325",
"b. c #5A2700",
"n. c #7F6C5C",
"m. c #220F00",
"M. c #572700",
"N. c #532500",
"B. c #4E2200",
"V. c #8E5021",
"C. c #894E20",
"Z. c #5D3D24",
"A. c #52331A",
"S. c #251100",
"D. c #532300",
"F. c #5E2A00",
"G. c #522300",
"H. c #592600",
"J. c #634329",
"K. c #2C1400",
"L. c #291200",
"P. c #1D0C00",
"I. c #9A5723",
"U. c #B76625",
"Y. c #C06B28",
"T. c #1E0C00",
"R. c #422917",
"E. c #5E3F27",
"W. c #5A3B23",
"Q. c #442B18",
"!. c #6E3100",
"~. c #813900",
"^. c #7D3700",
"/. c #863C00",
"(. c #904000",
"). c #5D2900",
"_. c #753400",
"`. c #733300",
"'. c #672E00",
"]. c #773500",
"[. c #7D3400",
"{. c #5F2A00",
"}. c #672B00",
"|. c #002208",
" X c #4B301B",
".X c #002708",
"XX c #56371E",
"oX c #6A452B",
"OX c #002205",
"+X c #674229",
"@X c #746153",
"#X c #442817",
"$X c #002406",
"%X c #613E27",
"&X c #583621",
"*X c #587355",
"=X c #3D2212",
"-X c #69402A",
";X c #492819",
":X c #391E10",
">X c #87A46B",
",X c #673F29",
"<X c #001E00",
"1X c #5F3D26",
"2X c #002002",
"3X c #002407",
"4X c #002203",
"5X c #563420",
"6X c #90AF70",
"7X c #5A4229",
"8X c #002303",
"9X c #002505",
"0X c #002405",
"qX c #002507",
"wX c #534027",
"eX c #9D0000",
"rX c #9F0000",
"tX c #A40000",
"yX c #4E452A",
"uX c #5F3E27",
"iX c #000E01",
"pX c #001204",
"aX c #001002",
"sX c #442918",
"dX c #567657",
"fX c #980000",
"gX c #930000",
"hX c #5A432A",
"jX c #001001",
"kX c #001304",
"lX c #614028",
"zX c #513D24",
"xX c #533F25",
"cX c #554128",
"vX c #462918",
"bX c #482B19",
"nX c #4B624A",
"mX c #402917",
"MX c #4E6A50",
"NX c #90B374",
"BX c #552B18",
"VX c #91AF70",
/* pixels */
"  . X .   o o o o       o o o o o   o o   O O +   o   .     O @ O + o o o   o o o o o o     o o o o o   O @ @ O   o o o       o ",
"  O O O   o o o + # . . + o o o + #   o   . @ O . + + .     O @ O .   o   # + o o   o   # .         o   O @ O O   o   + . O #   ",
"  . @ O   o o   $ + + O .   o + . O   o o + . O O O O .     O O X .   o   . . +   #   o X # + . O #     O . X #   + . . @ . + o ",
"o + . O   o     + o   O O     . @ O   o o o     + . . + o   . . + #   o o + . . X .     # X   . . + o   . + o     # . X . + o o ",
"o o + #     # O . +   O .   + O @ .   o o o o     +   o o o     o   o o o o + . O O     O .   + + o o   #   o     +     #   o o ",
"o o o + o o + . @ . + # +   . @ . + o o       . . #   % % % o o % % % % % o o + . O     . . + . .   o o +   + . . # + o     o o ",
"o o   # + o o + O O + & % & * O + o % & = = - = +   ; : > : ; ; : > > > : ; % % - .   o     + O * & % & = O O O X + $ +   $ + o ",
"o o + O .   o   O , < 1 > > 2 < & ; : > 3 3 > 1 ; ; : 4 4 4 > > 4 4 4 4 4 > > > 1 <         = 5 2 > > > 2 5 , O #   + $   X #   ",
"o + . O O   o   < 2 3 4 4 6 4 3 > > 4 4 4 4 4 4 > 7 8 4 6 4 4 4 4 4 4 8 4 4 4 8 4 1 9 = = 9 1 3 4 4 4 4 4 3 1 9 & o   + + . .   ",
"  . . X #   o % 1 4 4 4 6 0 q 4 4 4 4 4 4 4 4 4 w e r t y q 4 4 4 4 w u w 4 w u w 6 i 3 3 > 4 p p p p p p 4 4 > : & # O O . + o ",
"  # + o   o o ; > 4 4 4 6 a s d p p p p p 4 4 8 e f g r h j k 8 8 l z x z c z x v b 0 6 4 4 n m M M M M M n 4 4 > ; + . . + o o ",
"    o o o o % : 4 4 p p n N N M M M M M B n p l V C Z A c S A A D F G H J A K L P I q 4 4 p U n p p p n M B n 4 4 : %     o o   ",
".   o o o o % > p n m M M M n p p p p p n m M Y T f R E W R Q Q Q ! Q ~ ^ R R / g ( 8 4 4 4 p 4 4 4 4 4 p n U p 4 > % o o o   . ",
"O + o o o o % ) m B n p p p 4 4 6 4 4 4 4 p p p w A C Z Q _ _ ~ ~ ~ ` ' ] [ { ' } F p 4 4 p p p p p p 4 4 4 p 4 4 > % o o o + O ",
"O . + o o o & 1 p p 4 4 4 4 4 q y 6 4 4 p p p p l |  .Z Q ] ] _ ~ Q ..X.o.' o.O.+.@.8 p n M M M M M M n p p p 4 4 > ; o o + . O ",
"+ O .   o + # 5 1 4 4 4 4 4 6 y q p p n m M M M M #.$.f ^ C ^ Z Z ^ %.&.' *.' =.-.;.n M M M n p p n M M M M B p 4 4 : %   . . + ",
"  O O     # X # 9 > 4 4 4 4 4 6 p m M B n p p p p l :.>.,.f ,. .A V V <.+.%.+.1.2.M M M n p 6 4 4 4 p p p p p 4 4 4 > %   . + o ",
"  . .     #   + % > 4 4 p p p p p n n n p p p p 4 4 w :.V V V :.w 8 w :.V V V 3.4.l p p 6 q y 6 4 4 4 4 4 4 4 4 4 4 1 %   #   o ",
"o     o   +   # - > 4 n m M M M M M M M M M M B p 4 4 8 8 8 8 8 4 4 4 8 8 8 8 8 8 4 4 6 0 0 q 4 p p p p p 4 4 4 4 2 <   o   o   ",
"  o o + . . + . < 3 p U n p p p p p p p p p p p 4 4 4 4 4 4 4 4 4 4 4 4 4 4 4 4 4 4 4 4 d d p n M M M M M n p 4 1 5 O + o o   . ",
"#   + . @ . + & 1 4 6 p 4 4 4 4 p p p p p p p p 4 4 4 4 p p p p p p p 4 4 4 4 4 4 4 4 p m M M M M n p n M M B ) 9 O O .   o   . ",
"    # O . X $ & > q y q 4 4 4 n m M M M M M M M n 4 4 p M M 5.5.M M M n 6.6.4 4 4 4 4 4 p p p p p 4 4 4 p p p > & . X #   o o   ",
"o o       o   ; i y 7.y 6 4 n B n p p p p p n M B p 4 p B 8.' ' 9.n M 0.q.w.e.p p p p p 4 4 4 4 4 4 4 4 4 4 4 > 9 #     o o o o ",
"          o % : 4 q y q 4 p m M p 4 4 4 4 4 4 p p r.r.r.9.' t.t.' y.u.i.p.a.s.d.M M M M n p p 4 4 4 4 4 4 4 4 4 : & o o         ",
"O O O O . + % > 4 4 6 p p p n n p p p p p p 4 4 y.' ' ' ' ' f.f.' ' ' ' g.h.j.' 9.d n M M M M n p 4 4 6 4 4 4 4 > ; o   # O O O ",
"@ @ @ O O # & : 4 4 n m M M M M M M M M M M n r.' k.l.l.z.' f.f.' z.l.x.c.a.v.b.' n.6 p p n M M B p q y q 4 4 4 4 : %   + . O @ ",
"O O O X     o ; > p U n p p p p p p p p n M B u.' m.M.N.l.' f.f.' l.N.B.V.h.C.x.' Z.4 4 4 4 p p p 6 y A.y 6 4 4 4 > - #     + . ",
"  + . . +   o % > 4 p 4 4 4 4 4 4 4 4 4 4 p p r.' S.M.N.l.' f.f.' l.N.B.c.a.v.D.' r.p p p p p 4 4 4 6 4 6 4 4 4 4 1 = .   o o   ",
"  o + . . #   % > 4 4 4 4 p p p 4 4 p p p p 4 r.' S.l.M.F.' f.f.' F.M.G.V.h.C.H.' J.m M M M B n p p p p p 4 4 4 > 9 +   o o     ",
"# +   +     o % : 4 4 p n M M M n n M M M M n u.' K.S.S.L.' f.f.' L.S.P.I.U.Y.T.' R.n p p p n m M M M M M n p 4 1 * # + o   # . ",
"+ . O .   o o o ; > p m M M E.M M M M W.n M M Q.' ' ' ' ' ' t.t.' ' ' ' ' ' ' ' ' u.4 4 4 4 4 p p p p n M M B ) 9 # X $   o   + ",
"+ O @ O   o     % > 4 p p p 4 p p p d y q p p u.' !.~.^./.' ' ' ' /.^.^.^.^.^.(.' u.p p 4 4 4 4 4 4 4 4 p p p > % +   +   o + . ",
". O O .   + # # & > p p p 4 4 4 4 4 4 q y 6 4 r.' ' )._.`.^.^.^.^.`.`.`.`.`.^.' ' Q.M B n 4 4 4 4 4 4 4 4 4 4 > 9 . . . . + # O ",
"          # X + % ) m M M n 4 4 4 4 p p d p p p 9.' '.]._._._._._._.[.[._._./.' y.p p n B n p 4 4 4 4 4 4 4 4 4 1 < + X .       ",
"  o o   + O O # & > p n M B p 4 p n M M M M M M 5.' ' '.{.{.{.{.{.}.|.|.}.'.' ' r.4 4 d M M M n p p 4 4 4 4 4 4 4 1 & . .   o   ",
"# +   . O @ . + ; > 4 4 p p 4 n m M M n p d p n M  X' ' ' ' ' ' ' ' .X.X' ' ' y.4 4 6 0 XXn M M M B p 4 4 4 4 4 4 : & # + o + # ",
"+ $ + O O . + % : 4 4 4 4 4 p U n p p 4 q y 6 4 p p r.r.u.J.5.5.5.oXOXOX+Xr.u.p p p 6 @X@X6 p n n n p p p p p 4 1 ; o   o   $ + ",
"o     # +   o % ) p p p p p 4 p 4 4 4 6 y q 4 4 4 4 4 n M M M E.M #X$XOX%Xp m M M M p q 0 6 n m M M M M M M M &X< + o o o o   o ",
"      +   o o *X=XM M M M M p 4 p p p p d p p 4 4 4 p m M n %X4 p -XOX$X;Xp p p n B p 4 6 p U n p p p p p n M :X>X#         o   ",
". O O O #   & : p p p p n B p n m M M M M M M n 4 4 4 p p ,X<X1X1X2X3X3X4X1X4 4 4 n p p p p n 4 4 4 4 4 4 4 p 5X< + + . O . + # ",
"+ . @ . +   6X3 4 4 4 4 4 p p U n p p p p n M M n p 4 4 7X8X9X1X1X0XqXqX0X%Xp p n M M M M M M n p 4 4 6 4 4 4 4 1 - . @ @ .     ",
"  X . + o o & : 4 4 4 4 4 4 4 n p p p 4 4 4 n M M B p wXeXrXtXyXuXiXpXpXaXsXM M M M n p p n M M B p 6 y q 4 4 4 3 = O @ . + o   ",
"O O .   o o o dX> 4 p p p p n m M M M n 4 6 4 p p p 4 wXfXgXgXeXhXjXkXkXjXlXp p p p 4 4 4 p n n n p p XXy 6 4 4 > & X . + o   # ",
"O . +     o % : 4 p m M M M B n p n M B d 0 q 4 4 4 4 wXfXgXgXfXhXiXpXpXiXuX4 4 4 4 4 p n M M M M M M M W.p p 4 : & # . + o o   ",
"      # . + & > 4 4 p d p p p 4 4 4 p p 6 @X0 6 4 4 6 zXeXfXfXeX7X0XqXqX0X1X4 4 4 4 p m M M n p p p n M M M B ) 9 o + + # + o o ",
"o o o + O O * 2 4 4 q y 6 4 4 p p p p p 4 6 6 4 4 6 0 s xXcXcXwX%X4X$X$X4X1X4 4 4 4 4 p p d 4 4 4 4 4 p p p p 3 = + # + O # + o ",
"o o     O @ @ < 3 6 y q 4 4 n M M M M M n p p 4 4 p W.N M M M E.M vXvXbXvXn p 4 4 4 4 4 q y 6 4 4 4 4 4 4 4 4 3 * X . + # X $   ",
"o + $ + . @ O nX> 4 6 4 4 p m M n p n M M M B n p m M M n n M M M n n M mXM B p 4 6 4 6 y q 4 4 4 4 4 4 4 4 4 3 5 . O +   o + o ",
"  $ X o + O @ * 3 4 4 4 4 4 p p 4 4 4 p p p n U p p p p 4 4 p p p 4 4 p p p p 4 6 y 6 4 6 4 p p p p 4 4 4 4 4 4 1 - O #     #   ",
"o + $     O O , 1 4 4 4 4 4 4 4 p p p p p p 4 p 4 4 4 4 4 4 6 4 4 4 4 4 4 4 4 4 p d p p p n m M M M n p p 4 4 4 > & # + o   #   ",
"      o   . X . 9 : 4 4 4 p p n M M M M M B n p p p 4 4 4 6 y q 4 4 4 4 4 p p n M M M M M B n p n M M M M n 4 4 > %       o +   ",
"O . + o   # + .   dX> 4 n m M M M n p p p n m M M M n 4 4 4 q y 6 p p p n M M M M n p p p p 4 4 4 p p n M B p 4 > & + . # + # O ",
"@ @ . +   +   # & : 4 p U n p d d 4 4 4 4 4 p p n M B p 4 p p d n m M M M M E.n n p p 4 4 4 4 6 6 4 4 4 p p 4 4 1 * . . + o + O ",
"O @ @ O . #   + ; > 4 4 p 4 q 0 @X6 4 4 4 4 4 4 4 p p p n m M M B n p p p n m M M M M n 4 4 q 0 @X6 4 4 4 4 4 : MX# +   o o   . ",
"+ . O O X +   6X1 4 4 4 4 6 y A.0 6 4 4 4 4 4 4 4 p n m B n p p p 4 4 4 4 4 p p p n M B p 6 y A.0 6 4 4 4 4 > 9 $ + o   o o o   ",
"  + + . . #   - 1 4 4 4 4 4 6 4 6 4 4 4 4 4 4 4 p m B n p 4 4 4 4 > > 3 4 4 4 4 4 4 p p 4 4 6 4 i > 3 4 4 4 : %   o + #   o     ",
"O . + + +     # < 3 4 3 > > 3 > 4 4 > > 3 4 4 4 4 p ) > 3 3 4 4 : ; & < 2 3 3 > > 4 > > 3 3 3 : ; & NX2 3 1 ; o o   . O   + . O ",
"O O . . #   o   & : 2 NX& - = 9 : 1 ; & NX1 > 3 3 1 ; & = < 2 : 9     O * * * & ; BX; - = , * &   o + * , * + o o + O O + # @ O ",
"      + + o o o o & VX+   . .   & =   o + % - * , *   o + + VX- # . + # + + #     VX+ $ X O . + # +   O @ O #     . @ O   + # + ",
"o o   . #   o o       o + # +   + . + + # + # @ @ O +   # +     + #       o   o o +   +   # +   O . + . O X   o + . O O       o ",
"o     # + o o   # . +   $ + + . O @ O O .   + . @ @ . + . # X # +   o + $   o   + . . #     o + O O   + . #     $ + + # + # + o ",
"  #       o o o + . . +   + . @ @ @ O . + o o + O O .     + . @ .   + $ X o + . O O X + o o   . O O   o + + o o   o o     O .   ",
"  .   + #   o o o + . # + # O O O . +   o       # +     o   O @ O + $ X $ + # O O O . #   o   # X #     . . +   o o o o   . .   ",
"  . + . O   o o o o     o           o o   . .     o   #     O @ O     o   o             o o o   o   o   O @ O .   o o o o     o "
};
