/* XPM */
static char *result[] = {
/* columns rows colors chars-per-pixel */
"64 64 200 2 ",
"   c #52664B",
".  c #89A369",
"X  c #4B5E47",
"o  c #566A4D",
"O  c #869F67",
"+  c #4F6249",
"@  c #829B65",
"#  c #8DA76B",
"$  c #91AB6D",
"%  c #596F51",
"&  c #5A6F51",
"*  c #90AC6F",
"=  c #91AC6F",
"-  c #52674D",
";  c #94B071",
":  c #5D7353",
">  c #5D7356",
",  c black",
"<  c #647C5A",
"1  c #566B4F",
"2  c #FFCB36",
"3  c #FFBD32",
"4  c #FFCC38",
"5  c #D6942D",
"6  c #FFC032",
"7  c #FFBC52",
"8  c #FFBB4F",
"9  c #FFB22E",
"0  c #526A4E",
"q  c #566E50",
"w  c #89A76C",
"e  c #8DAB6E",
"r  c #4F664C",
"t  c #C6892A",
"y  c #FFB12C",
"u  c #FFBA4D",
"i  c #5D7757",
"p  c #85A36A",
"a  c #8DAF72",
"s  c #552F1B",
"d  c #583721",
"f  c #512B19",
"g  c #567254",
"h  c #58331D",
"j  c #55331F",
"k  c #C8932A",
"l  c #FFCF59",
"z  c #FFCA53",
"x  c #603C24",
"c  c #89AB70",
"v  c #583B24",
"b  c #563821",
"n  c #AB0000",
"m  c #980000",
"M  c #5F4027",
"N  c #526E52",
"B  c #766456",
"V  c #54361D",
"C  c #67452A",
"Z  c #9E0000",
"A  c #5C3822",
"S  c #5A3C25",
"D  c #766354",
"F  c #786657",
"G  c #583A22",
"H  c #614128",
"J  c #B98827",
"K  c #634329",
"L  c #3C2615",
"P  c #3E2716",
"I  c #5C3E26",
"U  c #3C2413",
"Y  c #442B18",
"T  c #DB982E",
"R  c #C18426",
"E  c #FFCA56",
"W  c #FFC053",
"Q  c #422917",
"!  c #3D2615",
"~  c #FFBA32",
"^  c #3B2414",
"/  c #5A3822",
"(  c #786759",
")  c #5D3D24",
"_  c #FFAD8F",
"`  c #F1A085",
"'  c #462C19",
"]  c #4B301B",
"[  c #FFD59E",
"{  c #FFD19C",
"}  c #FFC492",
"|  c #69462B",
" . c #FFC893",
".. c #FFC190",
"X. c #FFA98D",
"o. c #FFE1A8",
"O. c #DC9079",
"+. c #DA8C77",
"@. c #DF937A",
"#. c #56341D",
"$. c #503017",
"%. c #EF9D83",
"&. c #6E4A2D",
"*. c #FAAC8F",
"=. c #FFD49E",
"-. c #8B0C00",
";. c #6E0000",
":. c #6D0000",
">. c #760D03",
",. c #6A0C02",
"<. c #820C00",
"1. c #7F0B00",
"2. c #8C1105",
"3. c #770B00",
"4. c #810C00",
"5. c #770A00",
"6. c #8D1105",
"7. c #8A1004",
"8. c #891004",
"9. c #750A00",
"0. c #52331A",
"q. c #6C0C02",
"w. c #8C1004",
"e. c #660B02",
"r. c #8F1104",
"t. c #5E3F27",
"y. c #614026",
"u. c #941104",
"i. c #690B02",
"p. c #7F6C5C",
"a. c #8D1104",
"s. c #654227",
"d. c #A01305",
"f. c #7A0B00",
"g. c #961205",
"h. c #53351E",
"j. c #6D0C02",
"k. c #780B00",
"l. c #971205",
"z. c #492E1A",
"x. c #583621",
"c. c #587355",
"v. c #3D2212",
"b. c #840C00",
"n. c #391E10",
"m. c #87A46B",
"M. c #563420",
"N. c #90AF70",
"B. c #FFD89F",
"V. c #770D02",
"C. c #810B00",
"Z. c #971204",
"A. c #567657",
"S. c #56371E",
"D. c #3F567B",
"F. c #3B5072",
"G. c #3C5274",
"H. c #2A3B54",
"J. c #5A3B23",
"K. c #7D6959",
"L. c #364A69",
"P. c #374B6B",
"I. c #27364D",
"U. c #26354B",
"Y. c #384D6D",
"T. c #4B624A",
"R. c #2B3C56",
"E. c #3D5376",
"W. c #5F3F25",
"Q. c #746153",
"!. c #4E6A50",
"~. c #2F415D",
"^. c #865A37",
"/. c #5F3C24",
"(. c #90B374",
"). c #97BC7A",
"_. c #633D25",
"`. c #7D5434",
"'. c #744E30",
"]. c #714C2F",
"[. c #99663D",
"{. c #603820",
"}. c #597758",
"|. c #64805D",
" X c #597355",
".X c #91AF70",
"XX c #A46D42",
"oX c #99653D",
"OX c #A06A40",
"+X c #97643C",
"@X c #905F39",
"#X c #98B473",
"$X c #6A472D",
"%X c #63432A",
"&X c #583B25",
"*X c #5F4028",
"=X c #98B576",
"-X c #8DA86D",
";X c #617858",
":X c #9FBD7A",
/* pixels */
"  . X .   o o o o       o o o o o   o o   O O +   o   .     O @ O + o o o   o o o o o o     o o o o o   O @ @ O   o o o       o ",
"  O O O   o o o + # . . + o o o + #   o   . @ O . + + .     O @ O .   o   # + o o   o   # .         o   O @ O O   o   + . O #   ",
"  . @ O   o o   $ + + O .   o + . O   o o + . O O O O . % & * = - ; % :   . . +   #   o X # + . O #     O . X #   + . . @ . + o ",
"o + . O   o     + o   O O     . @ O   o o o     + . = > , , , , , , , , < 1 . . X .     # X   . . + o   . + o     # . X . + o o ",
"o o + #     # O . +   O .   + O @ .   o o o o     1 , , , 2 3 3 3 3 3 4 , , 1 . O O     O .   + + o o   #   o     +     #   o o ",
"o o o + o o + . @ . + # +   . @ . + o o       . . ; , 5 6 7 8 8 8 8 7 9 5 , : + . O     . . + . .   o o +   + . . # + o     o o ",
"o o   # + o o + O O + 0 q 0 w O + o q 0 e e r e + % , t y 8 u u u u 8 y t , i q r .   o     + O w 0 q 0 e O O O X + $ +   $ + o ",
"o o + O .   o   O p a s d d f a 0 g h d j j d s g i , k l z z z z z z l k , x d s a         e c f d d d f c p O #   + $   X #   ",
"o + . O O   o   a f j v v b v j d d v v v v v v d x , n m m m m m m m m n , M v v s N e e N s j v v v v v j s N 0 o   + + . .   ",
"  . . X #   o q s v v v b B V v v v M M M M M M M C , n Z Z Z Z Z Z Z Z n , C M M M x A A x v S S S S S S v v d h 0 # O O . + o ",
"  # + o   o o g d v v v b D F G S H , , , , , , , , , k J J J J J J J J k , , , , , , , , , K L P P P P P I v v d g + . . + o o ",
"    o o o o q h v v S S I U U P P Y , T R l E E E E E W W W W W W W W W W E E E E E l R T , Q I S S S I P ! I v v h q     o o   ",
".   o o o o q d S I L P P P I S S H , t ~ 9 9 9 9 9 9 3 3 3 3 3 3 3 3 3 3 9 9 9 9 9 9 ~ t , H v v v v v S I ^ S v d q o o o   . ",
"O + o o o o q / L ! I S S S v v b M , T t t t t t t 5 , , , , , , , , , , 5 t t t t t t T , H S S S S v v v S v v d q o o o + O ",
"O . + o o o 0 s S S v v v v v V ( ) , , , , , , , , , _ ` ` ` ` ` ` ` ` _ , , , , , , , , , Y P P P P I S S S v v d g o o + . O ",
"+ O .   o + # c s v v v v v b ( V S H K Y ' ] , _ [ { } } } } } } } } } } { [ _ , | K ' ' Y I S S I P P P P ! S v v h q   . . + ",
"  O O     # X # N d v v v v v b S L P ! I S H , _  ......................... ._ , Y P P I S b v v v S S S S S v v v d q   . + o ",
"  . .     #   + q d v v S S S S S I I I S S H , , X.} ....................} X., , H S S b V ( b v v v v v v v v v v s q   #   o ",
"o     o   +   # r d v I L P P P P P P P P P P Y | , { ........} } ........{ , C M v v b B B V v S S S S S v v v v f a   o   o   ",
"  o o + . . + . a j S ^ I S S S S S S S S S S S M , o.} .... .O.O. .....} o., M v v v v G G S I P P P P P I S v s c O + o o   . ",
"#   + . @ . + 0 s v b S v v v v S S S S S S S S M , , X. .} +.@.@.+.}  .X., , M v v v S L P P P P I S I P P ! / N O O .   o   . ",
"    # O . X $ 0 d V ( V v v v I L P P P P P P P I C , , X.[  .} }  .[ X., , C v v v v v S S S S S v v v S S S d 0 . X #   o o   ",
"o o       o   g #.( $.( b v I ! I S S S S S I P ! S C , , , %.} } %., , , | S S S S S S v v v v v v v v v v v d N #     o o o o ",
"          o q h v V ( V v S L P S v v v v v v S H M M C &., *.=.=.*., &.| Y ' ' P P P P I S S v v v v v v v v v h 0 o o         ",
"O O O O . + q d v v b S S S I I S S S S M M M C , , , , , -.;.:.:.;.-., , , , , | H K ' P P P I S v v b v v v v d g o   # O O O ",
"@ @ @ O O # 0 h v v I L P P P P P P P Y , , , , , >.,.<.1.2.2.3.3.2.2.1.<.,.>., , , , , H I P P ! S V ( V v v v v h q   + . O @ ",
"O O O X     o g d S ^ I S S S S S S S H , >.<.4.4.5.6.7.7.8.7.9.9.7.8.7.7.6.5.4.4.<.>., M v S S S b ( 0.( b v v v d r #     + . ",
"  + . . +   o q d v S v v v v v v v v M , q.6.7.7.7.8.8.8.8.8.7.7.8.8.8.8.8.7.7.7.6.q., H S S v v v b v b v v v v s e .   o o   ",
"  o + . . #   q d v v v v S S S v v S H , q.w.8.w.8.8.8.8.8.8.7.7.8.8.8.8.8.8.w.8.w.q., Y P ! I S S S S S v v v d N +   o o     ",
"# +   +     o q h v v S I P P P I I P Y , q.w.w.e.r.8.8.8.8.7.9.9.7.8.8.8.8.r.e.w.w.q., H S I L P P P P P I S v s w # + o   # . ",
"+ . O .   o o o g d S L P P t.P P P P y., q.w.u., i.w.8.8.8.7.3.3.7.8.8.8.w.i., u.w.q., M v v S S S S I P P ! / N # X $   o   + ",
"+ O @ O   o     q d v S S S v S S S G p., q.w.u., q.6.8.8.8.7.3.3.7.8.8.8.a.q., u.w.q., M v v v v v v v S S S d q +   +   o + . ",
". O O .   + # # 0 d S S S v v v v v v s., q.w.u., >.5.7.8.8.7.3.3.7.8.8.7.5.>., u.w.q., C v v v v v v v v v v d N . . . . + # O ",
"          # X + q / L P P I v v v v H , , ,.w.d., , 4.7.8.8.7.3.3.7.8.8.7.4., , d.w.,., , H S v v v v v v v v v s a + X .       ",
"  o o   + O O # 0 d S I P ! S v S I Y , >.f.g., h., 4.7.8.8.7.3.3.7.8.8.7.4., &., g.f.>., Y P I S S v v v v v v v s 0 . .   o   ",
"# +   . O @ . + g d v v S S v I L P ' , j.k.g., ] , 4.7.8.8.7.9.9.7.8.8.7.4., C , g.k.j., K P P P ! S v v v v v v h 0 # + o + # ",
"+ $ + O O . + q h v v v v v S ^ I S H , j.k.g., | , 4.7.8.8.8.7.7.8.8.8.7.4., | , g.k.j., M S I I I S S S S S v s g o   o   $ + ",
"o     # +   o q / S S S S S v S v v M , j.k.l., C , 4.7.8.8.8.8.8.8.8.8.7.4., z., l.k.j., M I L P P P P P P P x.a + o o o o   o ",
"      +   o o c.v.P P P P P S v S S H , >.b.-., C , <.7.8.8.8.7.7.8.8.8.7.<., | , -.b.>., H ^ I S S S S S I P n.m.#         o   ",
". O O O #   0 h S S S S I ! S I L P Y , , , , , C , ,.w.8.8.7.9.9.7.8.8.w.,., C , , , , , H I v v v v v v v S M.a + + . O . + # ",
"+ . @ . +   N.j v v v v v S S ^ I S H , _ ` _ , | , q.r.8.8.7.3.3.7.8.8.r.q., | , _ ` _ , Y P I S v v b v v v v s r . @ @ .     ",
"  X . + o o 0 h v v v v v v v I S S H , B.} [ , z., V.i.l.u.g.4.C.g.u.Z.i.V., z., [ } B., K P P ! S b ( V v v v j e O @ . + o   ",
"O O .   o o o A.d v S S S S I L P P ' , X.[ o., | , , , , , , , , , , , , , , | , o.[ X., H I I I S S S.( b v v d 0 X . + o   # ",
"O . +     o q h v S L P P P ! I S I Y , , , , , C , D.F.G.H.G.F.F.G.H.G.F.D., C , , , , , ' P P P P P P J.S S v h 0 # . + o o   ",
"      # . + 0 d v v S G S S S v v v S M ) K.K.) M , F.L.P.I.P.L.L.P.I.P.L.F., M M M H Y ' P I S S S I P P P ! / N o + + # + o o ",
"o o o + O O w f v v V ( b v v S S S S S v b b v M , F.L.P.U.P.F.F.P.U.P.L.F., M v v v S S G v v v v v S S S S j e + # + O # + o ",
"o o     O @ @ a j b ( V v v I P P P P P I S S v M , F.P.L.Y.D., , D.Y.L.P.F., M v v v v V ( b v v v v v v v v j w X . + # X $   ",
"o + $ + . @ O T.d v b v v S L P I S I P P P ! I M , G.U.Y.H., ] ] , H.Y.U.G., M v b v b ( V v v v v v v v v v j c . O +   o + o ",
"  $ X o + O @ w j v v v v v S S v v v S S S I ^ H , G.I.Y.R., H H , R.Y.I.G., M b ( b v b v S S S S v v v v v v s r O #     #   ",
"o + $     O O p s v v v v v v v S S S S S S v S M , G.I.Y.R., M M , R.Y.I.G., M S G S S S I L P P P I S S v v v d 0 # + o   #   ",
"      o   . X . N h v v v S S I P P P P P ! I S H , G.I.Y.R., ) M , R.Y.I.G., K P P P P P ! I S I P P P P I v v d q       o +   ",
"O . + o   # + .   A.d v I L P P P I S S S I L P Y , E.I.Y.R., p.) , R.Y.I.E., Y P I S S S S v v v S S I P ! S v d 0 + . # + # O ",
"@ @ . +   +   # 0 h v S ^ I S G G v v v v v S S H , R.I.Y.R., W.H , R.Y.I.R., K I S S v v v v b b v v v S S v v s w . . + o + O ",
"O @ @ O . #   + g d v v S v V B Q.b v v v v v v M , H.Y.P.R., Y Y , R.P.Y.H., Y P P P I v v V B Q.b v v v v v h !.# +   o o   . ",
"+ . O O X +   N.s v v v v b ( 0.B b v v v v v v M , E.P.G.~., H H , ~.G.P.E., H S I P ! S b ( 0.B b v v v v d N $ + o   o o o   ",
"  + + . . #   r s v v v v v b v b v v v v v v v M , ~.~., , , M M , , , ~.~., M v v S S v v b v #.d j v v v h q   o + #   o     ",
"O . + + +     # a j v j d d j d v v d d j v M M C , , , , ^., M /., ^., , , , C M M d d j j j h g 0 (.f j s g o o   . O   + . O ",
"O O . . #   o   0 h f (.0 r e N h s g 0 )._., , , `.'.'.].[., {.}., [.].'.'.`., , , |. Xe p w 0   o + w p w + o o + O O + # @ O ",
"      + + o o o o 0 .X+   . .   0 e   < , , XXoXOX+X+X+X@XoX,  X#X, oX@X+X+X+XOXoXXX, , > O . + # +   O @ O #     . @ O   + # + ",
"o o   . #   o o       o + # +   + . 1 , $X%X&X*X, , , , *X*X, % % , *X*X, , , , *X&X%X$X, ; +   O . + . O X   o + . O O       o ",
"o     # + o o   # . +   $ + + . O @ * , , , , , =X-X* ;X, , , ; 1 , , , :X% : ;X, , , , , % o + O O   + . #     $ + + # + # + o ",
"  #       o o o + . . +   + . @ @ @ O ; % : : % O O .   : % * @ . % 1 #XX o + . -X* 1 % : o   . O O   o + + o o   o o     O .   ",
"  .   + #   o o o + . # + # O O O . +   o       # +     o   O @ O + $ X $ + # O O O . #   o   # X #     . . +   o o o o   . .   ",
"  . + . O   o o o o     o           o o   . .     o   #     O @ O     o   o             o o o   o   o   O @ O .   o o o o     o "
};
