/* XPM */
static char *result[] = {
/* columns rows colors chars-per-pixel */
"64 64 207 2 ",
"   c #52664B",
".  c #89A369",
"X  c #4B5E47",
"o  c #566A4D",
"O  c #869F67",
"+  c #4F6249",
"@  c #829B65",
"#  c #8DA76B",
"$  c #91AB6D",
"%  c #596F51",
"&  c #5A6F51",
"*  c #90AC6F",
"=  c #91AC6F",
"-  c #52674D",
";  c #94B071",
":  c #5D7353",
">  c #5D7356",
",  c black",
"<  c #647C5A",
"1  c #566B4F",
"2  c #FFCB36",
"3  c #FFBD32",
"4  c #FFCC38",
"5  c #D6942D",
"6  c #FFC032",
"7  c #FFBC52",
"8  c #FFBB4F",
"9  c #FFB22E",
"0  c #526A4E",
"q  c #566E50",
"w  c #89A76C",
"e  c #8DAB6E",
"r  c #4F664C",
"t  c #C6892A",
"y  c #FFB12C",
"u  c #FFBA4D",
"i  c #5D7757",
"p  c #85A36A",
"a  c #8DAF72",
"s  c #552F1B",
"d  c #583721",
"f  c #512B19",
"g  c #567254",
"h  c #58331D",
"j  c #55331F",
"k  c #C8932A",
"l  c #FFCF59",
"z  c #FFCA53",
"x  c #603C24",
"c  c #89AB70",
"v  c #583B24",
"b  c #563821",
"n  c #AB0000",
"m  c #980000",
"M  c #5F4027",
"N  c #526E52",
"B  c #766456",
"V  c #54361D",
"C  c #67452A",
"Z  c #9E0000",
"A  c #5C3822",
"S  c #5A3C25",
"D  c #766354",
"F  c #786657",
"G  c #583A22",
"H  c #614128",
"J  c #B98827",
"K  c #634329",
"L  c #3C2615",
"P  c #3E2716",
"I  c #5C3E26",
"U  c #3C2413",
"Y  c #442B18",
"T  c #DB982E",
"R  c #C18426",
"E  c #FFCA56",
"W  c #FFC053",
"Q  c #422917",
"!  c #3D2615",
"~  c #FFBA32",
"^  c #3B2414",
"/  c #5A3822",
"(  c #786759",
")  c #5D3D24",
"_  c #FFAD8F",
"`  c #FFB091",
"'  c #F1A085",
"]  c #462C19",
"[  c #4B301B",
"{  c #FFD59E",
"}  c #FFD19C",
"|  c #FFC492",
" . c #69462B",
".. c #FFC893",
"X. c #FFC190",
"o. c #FFA98D",
"O. c #EF9D83",
"+. c #DC9079",
"@. c #FFE1A8",
"#. c #56341D",
"$. c #503017",
"%. c #6E4A2D",
"&. c #FAAC8F",
"*. c #FFD49E",
"=. c #8B0C00",
"-. c #6E0000",
";. c #6B0000",
":. c #760D03",
">. c #6A0C02",
",. c #820C00",
"<. c #7F0B00",
"1. c #8C1105",
"2. c #8A1004",
"3. c #810C00",
"4. c #770A00",
"5. c #8D1105",
"6. c #891004",
"7. c #941104",
"8. c #52331A",
"9. c #6C0C02",
"0. c #8C1004",
"q. c #660B02",
"w. c #8F1104",
"e. c #5E3F27",
"r. c #614026",
"t. c #690B02",
"y. c #7F6C5C",
"u. c #8D1104",
"i. c #654227",
"p. c #780B00",
"a. c #750A00",
"s. c #740A00",
"d. c #971205",
"f. c #A01305",
"g. c #961205",
"h. c #7A0B00",
"j. c #53351E",
"k. c #6D0C02",
"l. c #492E1A",
"z. c #583621",
"x. c #587355",
"c. c #3D2212",
"v. c #840C00",
"b. c #391E10",
"n. c #87A46B",
"m. c #720900",
"M. c #563420",
"N. c #90AF70",
"B. c #FFE5AA",
"V. c #770D02",
"C. c #971204",
"Z. c #567657",
"A. c #56371E",
"S. c #41597E",
"D. c #2E405B",
"F. c #3C5375",
"G. c #2A3B54",
"H. c #3C5275",
"J. c #3C5274",
"K. c #5A3B23",
"L. c #7D6959",
"P. c #2F415D",
"I. c #384C6D",
"U. c #27364D",
"Y. c #2B3C56",
"T. c #384C6C",
"R. c #374B6B",
"E. c #26354B",
"W. c #3B5173",
"Q. c #364A69",
"!. c #384D6D",
"~. c #3F567B",
"^. c #4B624A",
"/. c #334664",
"(. c #394E6F",
"). c #5F3F25",
"_. c #746153",
"`. c #4E6A50",
"'. c #3D5376",
"]. c #865A37",
"[. c #5F3C24",
"{. c #90B374",
"}. c #97BC7A",
"|. c #633D25",
" X c #7D5434",
".X c #744E30",
"XX c #714C2F",
"oX c #99663D",
"OX c #603820",
"+X c #597758",
"@X c #64805D",
"#X c #597355",
"$X c #91AF70",
"%X c #A46D42",
"&X c #99653D",
"*X c #A06A40",
"=X c #97643C",
"-X c #905F39",
";X c #98B473",
":X c #6A472D",
">X c #63432A",
",X c #583B25",
"<X c #5F4028",
"1X c #98B576",
"2X c #8DA86D",
"3X c #617858",
"4X c #9FBD7A",
/* pixels */
"  . X .   o o o o       o o o o o   o o   O O +   o   .     O @ O + o o o   o o o o o o     o o o o o   O @ @ O   o o o       o ",
"  O O O   o o o + # . . + o o o + #   o   . @ O . + + .     O @ O .   o   # + o o   o   # .         o   O @ O O   o   + . O #   ",
"  . @ O   o o   $ + + O .   o + . O   o o + . O O O O . % & * = - ; % :   . . +   #   o X # + . O #     O . X #   + . . @ . + o ",
"o + . O   o     + o   O O     . @ O   o o o     + . = > , , , , , , , , < 1 . . X .     # X   . . + o   . + o     # . X . + o o ",
"o o + #     # O . +   O .   + O @ .   o o o o     1 , , , 2 3 3 3 3 3 4 , , 1 . O O     O .   + + o o   #   o     +     #   o o ",
"o o o + o o + . @ . + # +   . @ . + o o       . . ; , 5 6 7 8 8 8 8 7 9 5 , : + . O     . . + . .   o o +   + . . # + o     o o ",
"o o   # + o o + O O + 0 q 0 w O + o q 0 e e r e + % , t y 8 u u u u 8 y t , i q r .   o     + O w 0 q 0 e O O O X + $ +   $ + o ",
"o o + O .   o   O p a s d d f a 0 g h d j j d s g i , k l z z z z z z l k , x d s a         e c f d d d f c p O #   + $   X #   ",
"o + . O O   o   a f j v v b v j d d v v v v v v d x , n m m m m m m m m n , M v v s N e e N s j v v v v v j s N 0 o   + + . .   ",
"  . . X #   o q s v v v b B V v v v M M M M M M M C , n Z Z Z Z Z Z Z Z n , C M M M x A A x v S S S S S S v v d h 0 # O O . + o ",
"  # + o   o o g d v v v b D F G S H , , , , , , , , , k J J J J J J J J k , , , , , , , , , K L P P P P P I v v d g + . . + o o ",
"    o o o o q h v v S S I U U P P Y , T R l E E E E E W W W W W W W W W W E E E E E l R T , Q I S S S I P ! I v v h q     o o   ",
".   o o o o q d S I L P P P I S S H , t ~ 9 9 9 9 9 9 3 3 3 3 3 3 3 3 3 3 9 9 9 9 9 9 ~ t , H v v v v v S I ^ S v d q o o o   . ",
"O + o o o o q / L ! I S S S v v b M , T t t t t t t 5 , , , , , , , , , , 5 t t t t t t T , H S S S S v v v S v v d q o o o + O ",
"O . + o o o 0 s S S v v v v v V ( ) , , , , , , , , , _ ` ` ' ' ' ' ` ` _ , , , , , , , , , Y P P P P I S S S v v d g o o + . O ",
"+ O .   o + # c s v v v v v b ( V S H K Y ] [ , _ { } { , , { | | { , , { } { _ ,  .K ] ] Y I S S I P P P P ! S v v h q   . . + ",
"  O O     # X # N d v v v v v b S L P ! I S H , _ ..X.| _ ' | X.X.| ' _ | X..._ , Y P P I S b v v v S S S S S v v v d q   . + o ",
"  . .     #   + q d v v S S S S S I I I S S H , , o.| } , ' | | | | ' , } | o., , H S S b V ( b v v v v v v v v v v s q   #   o ",
"o     o   +   # r d v I L P P P P P P P P P P Y  ., } | O.+...O.O...+.O.| } , C M v v b B B V v S S S S S v v v v f a   o   o   ",
"  o o + . . + . a j S ^ I S S S S S S S S S S S M , @.| | | @., , @.| | | @., M v v v v G G S I P P P P P I S v s c O + o o   . ",
"#   + . @ . + 0 s v b S v v v v S S S S S S S S M , , o...} , @.@., } ..o., , M v v v S L P P P P I S I P P ! / N O O .   o   . ",
"    # O . X $ 0 d V ( V v v v I L P P P P P P P I C , , o.{ { X.X.{ { o., , C v v v v v S S S S S v v v S S S d 0 . X #   o o   ",
"o o       o   g #.( $.( b v I ! I S S S S S I P ! S C , , , O.| | O., , ,  .S S S S S S v v v v v v v v v v v d N #     o o o o ",
"          o q h v V ( V v S L P S v v v v v v S H M M C %., &.*.*.&., %. .Y ] ] P P P P I S S v v v v v v v v v h 0 o o         ",
"O O O O . + q d v v b S S S I I S S S S M M M C , , , , , =.-.;.;.-.=., , , , ,  .H K ] P P P I S v v b v v v v d g o   # O O O ",
"@ @ @ O O # 0 h v v I L P P P P P P P Y , , , , , :.>.,.<.1.2.2.2.2.1.<.,.>.:., , , , , H I P P ! S V ( V v v v v h q   + . O @ ",
"O O O X     o g d S ^ I S S S S S S S H , :.,.3.3.4.5.2.2.6.6.7.6.6.6.2.2.5.4.3.3.,.:., M v S S S b ( 8.( b v v v d r #     + . ",
"  + . . +   o q d v S v v v v v v v v M , 9.5.2.2.2.6.6.6.6.7., 7.6.6.6.6.6.2.2.2.5.9., H S S v v v b v b v v v v s e .   o o   ",
"  o + . . #   q d v v v v S S S v v S H , 9.0.6.0.6.6.6.6.6.6.7.6.6.6.6.6.6.6.0.6.0.9., Y P ! I S S S S S v v v d N +   o o     ",
"# +   +     o q h v v S I P P P I I P Y , 9.0.0.q.w.6.6.6.6.6.7.6.6.6.6.6.6.w.q.0.0.9., H S I L P P P P P I S v s w # + o   # . ",
"+ . O .   o o o g d S L P P e.P P P P r., 9.0.7., t.0.6.6.6.7., 7.6.6.6.6.0.t., 7.0.9., M v v S S S S I P P ! / N # X $   o   + ",
"+ O @ O   o     q d v S S S v S S S G y., 9.0.7., 9.5.2.2.2.2.7.2.2.2.2.2.u.9., 7.0.9., M v v v v v v v S S S d q +   +   o + . ",
". O O .   + # # 0 d S S S v v v v v v i., 9.0.7., :.p.a.a.a.s.d.s.a.a.a.a.p.:., 7.0.9., C v v v v v v v v v v d N . . . . + # O ",
"          # X + q / L P P I v v v v H , , >.0.f., , 3.1.2.2.g., g.2.2.2.1.3., , f.0.>., , H S v v v v v v v v v s a + X .       ",
"  o o   + O O # 0 d S I P ! S v S I Y , :.h.g., j., 3.2.6.6.6.7.6.6.6.6.2.3., %., g.h.:., Y P I S S v v v v v v v s 0 . .   o   ",
"# +   . O @ . + g d v v S S v I L P ] , k.p.g., [ , 3.2.6.6.6.7.6.6.6.6.2.3., C , g.p.k., K P P P ! S v v v v v v h 0 # + o + # ",
"+ $ + O O . + q h v v v v v S ^ I S H , k.p.g.,  ., 3.2.6.6.7., 7.6.6.6.2.3.,  ., g.p.k., M S I I I S S S S S v s g o   o   $ + ",
"o     # +   o q / S S S S S v S v v M , k.p.d., C , 3.2.6.6.6.7.6.6.6.6.2.3., l., d.p.k., M I L P P P P P P P z.a + o o o o   o ",
"      +   o o x.c.P P P P P S v S S H , :.v.=., C , ,.2.6.2.6.7.6.6.2.6.2.,.,  ., =.v.:., H ^ I S S S S S I P b.n.#         o   ",
". O O O #   0 h S S S S I ! S I L P Y , , , , , C , >.0.2.m.d., g.1.m.2.0.>., C , , , , , H I v v v v v v v S M.a + + . O . + # ",
"+ . @ . +   N.j v v v v v S S ^ I S  ., _ ' _ ,  ., 9.w.6.1.s.3.a.s.1.6.w.9.,  ., _ ' _ , [ P I S v v b v v v v s r . @ @ .     ",
"  X . + o o 0 h v v v v v v v I S H , B...| { , l., V.t.d.7.g.g.g.g.7.C.t.V., l., { | ..B., ] P ! S b ( V v v v j e O @ . + o   ",
"O O .   o o o Z.d v S S S S I L P Y , _ O.{ @.,  ., , , , , , , , , , , , , ,  ., @.{ O._ , K I I S S A.( b v v d 0 X . + o   # ",
"O . +     o q h v S L P P P ! I S H , , , , , , C , S.D.F.G.F.D.H.J.G.F.D.S., C , , , , , , Y P P P P P K.S S v h 0 # . + o o   ",
"      # . + 0 d v v S G S S S v v v M M ) L.L.) M , P.G.I.U.I.Y.G.I.U.I.G.P., M M M H Y ] Y I S S S I P P P ! / N o + + # + o o ",
"o o o + O O w f v v V ( b v v S S S S S v b b v M , D.T.R.E.I.P.P.I.E.R.T.D., M v v v S S G v v v v v S S S S j e + # + O # + o ",
"o o     O @ @ a j b ( V v v I P P P P P I S S v M , W.R.Q.!.~., , ~.!.Q.R.W., M v v v v V ( b v v v v v v v v j w X . + # X $   ",
"o + $ + . @ O ^.d v b v v S L P I S I P P P ! I M , J.E.!.G., [ [ , G.!.E.J., M v b v b ( V v v v v v v v v v j c . O +   o + o ",
"  $ X o + O @ w j v v v v v S S v v v S S S I ^ H , J.U.!.Y., H H , Y.!.U.J., M b ( b v b v S S S S v v v v v v s r O #     #   ",
"o + $     O O p s v v v v v v v S S S S S S v S C , J.U.!.Y., M M , Y.!.U.J., C S G S S S I L P P P I S S v v v d 0 # + o   #   ",
"      o   . X . N h v v v S S I P P P P P ! I H , /.I.U.!.Y., ) M , Y.!.U.I./., ] P P P P ! I S I P P P P I v v d q       o +   ",
"O . + o   # + .   Z.d v I L P P P I S S S I L Y , /.(.U.!.Y., y.) , Y.!.U.(./., Y I S S S S v v v S S I P ! S v d 0 + . # + # O ",
"@ @ . +   +   # 0 h v S ^ I S G G v v v v v S S C , Y.U.!.Y., ).H , Y.!.U.Y.,  .I S S v v v v b b v v v S S v v s w . . + o + O ",
"O @ @ O . #   + g d v v S v V B _.b v v v v v v M , G.!.R.Y., Y Y , Y.R.!.G., Y P P P I v v V B _.b v v v v v h `.# +   o o   . ",
"+ . O O X +   N.s v v v v b ( 8.B b v v v v v v M , '.R.J.P., H H , P.J.R.'., H S I P ! S b ( 8.B b v v v v d N $ + o   o o o   ",
"  + + . . #   r s v v v v v b v b v v v v v v v M , P.P., , , M M , , , P.P., M v v S S v v b v #.d j v v v h q   o + #   o     ",
"O . + + +     # a j v j d d j d v v d d j v M M C , , , , ]., M [., ]., , , , C M M d d j j j h g 0 {.f j s g o o   . O   + . O ",
"O O . . #   o   0 h f {.0 r e N h s g 0 }.|., , ,  X.X.XXXoX, OX+X, oXXX.X.X X, , , @X#Xe p w 0   o + w p w + o o + O O + # @ O ",
"      + + o o o o 0 $X+   . .   0 e   < , , %X&X*X=X=X=X-X&X, #X;X, &X-X=X=X=X*X&X%X, , > O . + # +   O @ O #     . @ O   + # + ",
"o o   . #   o o       o + # +   + . 1 , :X>X,X<X, , , , <X<X, % % , <X<X, , , , <X,X>X:X, ; +   O . + . O X   o + . O O       o ",
"o     # + o o   # . +   $ + + . O @ * , , , , , 1X2X* 3X, , , ; 1 , , , 4X% : 3X, , , , , % o + O O   + . #     $ + + # + # + o ",
"  #       o o o + . . +   + . @ @ @ O ; % : : % O O .   : % * @ . % 1 ;XX o + . 2X* 1 % : o   . O O   o + + o o   o o     O .   ",
"  .   + #   o o o + . # + # O O O . +   o       # +     o   O @ O + $ X $ + # O O O . #   o   # X #     . . +   o o o o   . .   ",
"  . + . O   o o o o     o           o o   . .     o   #     O @ O     o   o             o o o   o   o   O @ O .   o o o o     o "
};
