/* XPM */
static char *result[] = {
/* columns rows colors chars-per-pixel */
"64 64 233 2 ",
"   c #52664B",
".  c #89A369",
"X  c #4B5E47",
"o  c #566A4D",
"O  c #869F67",
"+  c #4F6249",
"@  c #829B65",
"#  c #8DA76B",
"$  c #91AB6D",
"%  c #596F51",
"&  c #5A6F51",
"*  c #90AC6F",
"=  c #91AC6F",
"-  c #52674D",
";  c #94B071",
":  c #5D7353",
">  c #5D7356",
",  c black",
"<  c #647C5A",
"1  c #566B4F",
"2  c #FFCC38",
"3  c #FFBD32",
"4  c #FFCB36",
"5  c #D6942D",
"6  c #FFB22E",
"7  c #FFBC52",
"8  c #FFBB4F",
"9  c #FFC032",
"0  c #526A4E",
"q  c #566E50",
"w  c #89A76C",
"e  c #8DAB6E",
"r  c #4F664C",
"t  c #C6892A",
"y  c #FFB12C",
"u  c #FFBA4D",
"i  c #5D7757",
"p  c #85A36A",
"a  c #8DAF72",
"s  c #552F1B",
"d  c #583721",
"f  c #512B19",
"g  c #567254",
"h  c #58331D",
"j  c #55331F",
"k  c #C8932A",
"l  c #FFCF59",
"z  c #FFCA53",
"x  c #603C24",
"c  c #89AB70",
"v  c #583B24",
"b  c #563821",
"n  c #AB0000",
"m  c #980000",
"M  c #5F4027",
"N  c #526E52",
"B  c #766456",
"V  c #54361D",
"C  c #67452A",
"Z  c #9E0000",
"A  c #5C3822",
"S  c #5A3C25",
"D  c #766354",
"F  c #786657",
"G  c #583A22",
"H  c #614128",
"J  c #B98827",
"K  c #634329",
"L  c #3C2615",
"P  c #3E2716",
"I  c #5C3E26",
"U  c #3C2413",
"Y  c #442B18",
"T  c #EBA231",
"R  c #C68827",
"E  c #FFD35A",
"W  c #FFCA56",
"Q  c #FFC053",
"!  c #C18426",
"~  c #DB982E",
"^  c #422917",
"/  c #3D2615",
"(  c #FFB62F",
")  c #FFBA32",
"_  c #3B2414",
"`  c #5A3822",
"'  c #786759",
"]  c #69462B",
"[  c #FFBD9B",
"{  c #FFB091",
"}  c #F1A085",
"|  c #FFAD8F",
" . c #462C19",
".. c #4B301B",
"X. c #FFF1B4",
"o. c #FFD59E",
"O. c #FFC492",
"+. c #FFD19C",
"@. c #FFC190",
"#. c #FFC893",
"$. c #FFA98D",
"%. c #DC9079",
"&. c #EF9D83",
"*. c #FFD89F",
"=. c #FFE5AA",
"-. c #FFE1A8",
";. c #FFB999",
":. c #56341D",
">. c #503017",
",. c #6E4A2D",
"<. c #FAAC8F",
"1. c #FFD49E",
"2. c #8B0C00",
"3. c #6E0000",
"4. c #6B0000",
"5. c #730C02",
"6. c #820C00",
"7. c #7F0B00",
"8. c #8C1105",
"9. c #8A1004",
"0. c #890C00",
"q. c #5D3D24",
"w. c #7F6C5C",
"e. c #8D1105",
"r. c #891004",
"t. c #941104",
"y. c #961205",
"u. c #52331A",
"i. c #8C1004",
"p. c #810C00",
"a. c #8F1104",
"s. c #660B02",
"d. c #690B02",
"f. c #5E3F27",
"g. c #5A3B23",
"h. c #840C00",
"j. c #5F0A02",
"k. c #6C0C02",
"l. c #620B02",
"z. c #8D1104",
"x. c #6C0C03",
"c. c #780B00",
"v. c #750A00",
"b. c #740A00",
"n. c #971205",
"m. c #770A00",
"M. c #6A0B02",
"N. c #6A0C02",
"B. c #8C0D00",
"V. c #8E0D00",
"C. c #5F3F25",
"Z. c #760D03",
"A. c #7D6959",
"S. c #56371E",
"D. c #654227",
"F. c #800E03",
"G. c #7B6656",
"H. c #746153",
"J. c #5B3A20",
"K. c #740C02",
"L. c #583621",
"P. c #587355",
"I. c #3D2212",
"U. c #A01305",
"Y. c #391E10",
"T. c #87A46B",
"R. c #720900",
"E. c #563420",
"W. c #90AF70",
"Q. c #770D02",
"!. c #971204",
"~. c #567657",
"^. c #EC9981",
"/. c #FFE8AB",
"(. c #41597E",
"). c #2E405B",
"_. c #3C5375",
"`. c #2A3B54",
"'. c #3C5274",
"]. c #3C5275",
"[. c #2F415D",
"{. c #384C6D",
"}. c #27364D",
"|. c #2B3C56",
" X c #384C6C",
".X c #374B6B",
"XX c #26354B",
"oX c #3B5173",
"OX c #364A69",
"+X c #384D6D",
"@X c #3F567B",
"#X c #4B624A",
"$X c #334664",
"%X c #394E6F",
"&X c #3D5376",
"*X c #4E6A50",
"=X c #865A37",
"-X c #5F3C24",
";X c #90B374",
":X c #97BC7A",
">X c #633D25",
",X c #7D5434",
"<X c #744E30",
"1X c #714C2F",
"2X c #99663D",
"3X c #603820",
"4X c #597758",
"5X c #7F5535",
"6X c #5D7B5A",
"7X c #552B18",
"8X c #91AF70",
"9X c #A46D42",
"0X c #99653D",
"qX c #A06A40",
"wX c #97643C",
"eX c #905F39",
"rX c #597355",
"tX c #98B473",
"yX c #8B5D38",
"uX c #8E5E39",
"iX c #617858",
"pX c #6A472D",
"aX c #63432A",
"sX c #583B25",
"dX c #5F4028",
"fX c #533824",
"gX c #92613A",
"hX c #8D5E39",
"jX c #94623B",
"kX c #98B576",
"lX c #8DA86D",
"zX c #5C3E27",
"xX c #9FBD7A",
/* pixels */
"  . X .   o o o o       o o o o o   o o   O O +   o   .     O @ O + o o o   o o o o o o     o o o o o   O @ @ O   o o o       o ",
"  O O O   o o o + # . . + o o o + #   o   . @ O . + + .     O @ O .   o   # + o o   o   # .         o   O @ O O   o   + . O #   ",
"  . @ O   o o   $ + + O .   o + . O   o o + . O O O O . % & * = - ; % :   . . +   #   o X # + . O #     O . X #   + . . @ . + o ",
"o + . O   o     + o   O O     . @ O   o o o     + . = > , , , , , , , , < 1 . . X .     # X   . . + o   . + o     # . X . + o o ",
"o o + #     # O . +   O .   + O @ .   o o o o     1 , , 2 3 3 3 3 3 4 , , , 1 . O O     O .   + + o o   #   o     +     #   o o ",
"o o o + o o + . @ . + # +   . @ . + o o       . . ; , 5 6 7 8 8 8 8 7 9 5 , : + . O     . . + . .   o o +   + . . # + o     o o ",
"o o   # + o o + O O + 0 q 0 w O + o q 0 e e r e + % , t y 8 u u u u 8 y t , i q r .   o     + O w 0 q 0 e O O O X + $ +   $ + o ",
"o o + O .   o   O p a s d d f a 0 g h d j j d s g i , k l z z z z z z l k , x d s a         e c f d d d f c p O #   + $   X #   ",
"o + . O O   o   a f j v v b v j d d v v v v v v d x , n m m m m m m m m n , M v v s N e e N s j v v v v v j s N 0 o   + + . .   ",
"  . . X #   o q s v v v b B V v v v v M M M M M M C , n Z Z Z Z Z Z Z Z n , C M M M x A A x v S S S S S S v v d h 0 # O O . + o ",
"  # + o   o o g d v v v b D F G S S H , , , , , , , , k J J J J J J J J k , , , , , , , , , K L P P P P P I v v d g + . . + o o ",
"    o o o o q h v v S S I U U P P P Y , T R E W W W W Q Q Q Q Q Q Q Q Q Q W W W W W l ! ~ , ^ I S S S I P / I v v h q     o o   ",
".   o o o o q d S I L P P P I S S S S C , ~ ! ( 6 6 6 3 3 3 3 3 3 3 3 3 3 6 6 6 6 6 6 ) t , H v v v v v S I _ S v d q o o o   . ",
"O + o o o o q ` L / I S S S v v b v v v C , , 5 t t 5 , , , , , , , , , , 5 t t t t t t ~ , H S S S S v v v S v v d q o o o + O ",
"O . + o o o 0 s S S v v v v v V ' b v v S ] , , , , , [ { } } } { { } } | , , , , , , , , , Y P P P P I S S S v v d g o o + . O ",
"+ O .   o + # c s v v v v v b ' V S S I L P  . ..., X., , o.O.o., , o.O.O.+.o.| , ] K  . .Y I S S I P P P P / S v v h q   . . + ",
"  O O     # X # N d v v v v v b S L P / I S S S H , o.| } O.@.O.} | O.@.@.@.#.| , Y P P I S b v v v S S S S S v v v d q   . + o ",
"  . .     #   + q d v v S S S S S I I I S S S S M , X., } O.@.O.} , +.@.@.O.$., , H S S b V ' b v v v v v v v v v v s q   #   o ",
"o     o   +   # r d v I L P P P P P P P P P P / S C , | %.o.+.O.%.&.O.@.@.+., C M v v b B B V v S S S S S v v v v f a   o   o   ",
"  o o + . . + . a j S _ I S S S S S S S S S S S v M , *.=., , -.O.O.@.@.O.-., M v v v v G G S I P P P P P I S v s c O + o o   . ",
"#   + . @ . + 0 s v b S v v v v S S S S S S S S v M , ;., -.-., +.@.@.#.$., , M v v v S L P P P P I S I P P / ` N O O .   o   . ",
"    # O . X $ 0 d V ' V v v v I L P P P P P P P I M , , ;.o.O.+.@.O.o.$., , C v v v v v S S S S S v v v S S S d 0 . X #   o o   ",
"o o       o   g :.' >.' b v I / I S S S S S I P / S C , , , &.O.O.&., , , ] S S S S S S v v v v v v v v v v v d N #     o o o o ",
"          o q h v V ' V v S L P S v v v v v v S S v M C ,., <.1.1.<., ,.] P P P P P P P I S S v v v v v v v v v h 0 o o         ",
"O O O O . + q d v v b S S S I I S S S S S S v v v C , , , 2.3.4.4.3.2., , ..K S S G I P P P P I S v v b v v v v d g o   # O O O ",
"@ @ @ O O # 0 h v v I L P P P P P P P P P P I v C , 5.6.7.8.9.9.9.9.8.0., , , C q.w.b S S I P P / S V ' V v v v v h q   + . O @ ",
"O O O X     o g d S _ I S S S S S S S S I P / ] , 0.e.9.9.r.r.r.t.r.r.9.t.y.0., , , M v v v S S S b ' u.' b v v v d r #     + . ",
"  + . . +   o q d v S v v v v v v v v v v S H , 2.8.r.r.r.r.r.t., t.r.r.r.i.9.y.2., H S S S S v v v b v b v v v v s e .   o o   ",
"  o + . . #   q d v v v v S S S v v S S S S M , p.9.r.r.r.r.r.r.t.r.r.r.a.s.a.9.p., Y P P P / I S S S S S v v v d N +   o o     ",
"# +   +     o q h v v S I P P P I I P P P P K , p.e.r.r.r.r.r.r.t.r.r.i.d., d.e.p., H S S S I L P P P P P I S v s w # + o   # . ",
"+ . O .   o o o g d S L P P f.P P P P g.I P Y , h.j.i.r.r.r.r.t., t.r.i.k., k.e.p., M v v v v S S S S I P P / ` N # X $   o   + ",
"+ O @ O   o     q d v S S S v S S S G ' V S H , h.l.e.9.9.9.9.9.t.9.9.z.k., k.e.p., H S v v v v v v v v S S S d q +   +   o + . ",
". O O .   + # # 0 d S S S v v v v v v V ' b M , h.x.c.v.v.v.v.b.n.b.v.m.M., N.e.p., ../ I v v v v v v v v v v d N . . . . + # O ",
"          # X + q ` L P P I v v v v S S G S H , B., p.8.9.9.9.y., y.9.9.n., 6.8.7., , K / I S v v v v v v v v v s a + X .       ",
"  o o   + O O # 0 d S I P / S v S I P P P P Y , V., p.9.r.r.r.r.t.r.r.r.t., p.9.8.2., C.P P P I S S v v v v v v v s 0 . .   o   ",
"# +   . O @ . + g d v v S S v I L P P I S G H , Z., p.9.r.r.r.r.t.r.r.r.t., p.9.9.p., A.S.I P P P / S v v v v v v h 0 # + o + # ",
"+ $ + O O . + q h v v v v v S _ I S S v V ' D., F., p.9.r.r.r.t., t.r.r.t., 2.9.9.p., G.H.b S I I I S S S S S v s g o   o   $ + ",
"o     # +   o q ` S S S S S v S v v v b ' J., , , , p.9.r.r.r.r.t.r.r.r.i.K., t.9.p., J.B b I L P P P P P P P L.a + o o o o   o ",
"      +   o o P.I.P P P P P S v S S S S G H , =.| , 6.9.r.9.r.r.t.r.9.r.i.k., U.y.2., M b S _ I S S S S S I P Y.T.#         o   ",
". O O O #   0 h S S S S I / S I L P P P P Y , o.} , N.i.9.R.8.y., n.R.9.i.k., , , , , H S S I v v v v v v v S E.a + + . O . + # ",
"+ . @ . +   W.j v v v v v S S _ I S S S S H , =.| , k.a.r.8.b.v.p.b.8.r.a.k., -.o.| , Y P P P I S v v b v v v v s r . @ @ .     ",
"  X . + o o 0 h v v v v v v v I S S S v v M , , , , Q.d.n.t.y.y.y.y.t.!.d.Q., +.#.&., H S I P P / S b ' V v v v j e O @ . + o   ",
"O O .   o o o ~.d v S S S S I L P P P I v b M M C , , , , , , , , , , , , , , =.^./., M v S I I I S S S.' b v v d 0 X . + o   # ",
"O . +     o q h v S L P P P / I S I P / G B V v M , (.)._.`.'.].)._.`._.).(., , , , , H I P P P P P P P g.S S v h 0 # . + o o   ",
"      # . + 0 d v v S G S S S v v v S S b H.B b M , [.`.{.}.{.`.|.{.}.{.`.[., C M M H L P P I S S S I P P P / ` N o + + # + o o ",
"o o o + O O w f v v V ' b v v S S S S S v b b v M , ). X.XXX{.[.[.{.XX.X X)., M v v v S S G v v v v v S S S S j e + # + O # + o ",
"o o     O @ @ a j b ' V v v I P P P P P I S S v M , oX.XOX+X@X, , @X+XOX.XoX, M v v v v V ' b v v v v v v v v j w X . + # X $   ",
"o + $ + . @ O #Xd v b v v S L P I S I P P P / I M , '.XX+X`., ...., `.+XXX'., M v b v b ' V v v v v v v v v v j c . O +   o + o ",
"  $ X o + O @ w j v v v v v S S v v v S S S I _ H , '.}.+X|., H H , |.+X}.'., M b ' b v b v S S S S v v v v v v s r O #     #   ",
"o + $     O O p s v v v v v v v S S S S S S v S C , '.}.+X|., M M , |.+X}.'., M S G S S S I L P P P I S S v v v d 0 # + o   #   ",
"      o   . X . N h v v v S S I P P P P P / I H , $X{.}.+X|., q.M , |.+X}.'., K P P P P P / I S I P P P P I v v d q       o +   ",
"O . + o   # + .   ~.d v I L P P P I S S S I L Y , $X%X}.+X|., w.q., |.+X}.&X, Y P I S S S S v v v S S I P / S v d 0 + . # + # O ",
"@ @ . +   +   # 0 h v S _ I S G G v v v v v S S C , |.}.+X|., C.H , |.+X}.|., K I S S v v v v b b v v v S S v v s w . . + o + O ",
"O @ @ O . #   + g d v v S v V B H.b v v v v v v M , `.+X.X|., Y Y , |..X+X`., Y P P P I v v V B H.b v v v v v h *X# +   o o   . ",
"+ . O O X +   W.s v v v v b ' u.B b v v v v v v M , &X.X'.[., H H , [.'..X&X, H S I P / S b ' u.B b v v v v d N $ + o   o o o   ",
"  + + . . #   r s v v v v v b v b v v v v v v v M , [.[., , , M M , , , [.[., M v v S S v v b v :.d j v v v h q   o + #   o     ",
"O . + + +     # a j v j d d j d v v d d j v M M C , , , , =X, M -X, =X, , , , C d v d d j j j h g 0 ;Xf j s g o o   . O   + . O ",
"O O . . #   o   0 h f ;X0 r e N h s g 0 :X>X, , , ,X<X<X1X2X, 3X4X, 2X1X<X<X5X, 6X7Xg r e p w 0   o + w p w + o o + O O + # @ O ",
"      + + o o o o 0 8X+   . .   0 e   < , , 9X0XqXwXwXwXeX0X, rXtX, 0XeXyXuX1X, iX8X+ $ X O . + # +   O @ O #     . @ O   + # + ",
"o o   . #   o o       o + # +   + . 1 , pXaXsXdX, , , , dXdX, % % , dXfXgXhXjXdX, iX  +   # +   O . + . O X   o + . O O       o ",
"o     # + o o   # . +   $ + + . O @ * , , , , , kXlX* iX, , , ; 1 , , , dXsXsXzXpX, ; #     o + O O   + . #     $ + + # + # + o ",
"  #       o o o + . . +   + . @ @ @ O ; % : : % O O .   : % * @ . % 1 xX, , , , , , 1 + o o   . O O   o + + o o   o o     O .   ",
"  .   + #   o o o + . # + # O O O . +   o       # +     o   O @ O + $ X tX1 ; * * * . #   o   # X #     . . +   o o o o   . .   ",
"  . + . O   o o o o     o           o o   . .     o   #     O @ O     o   o             o o o   o   o   O @ O .   o o o o     o "
};
