/* XPM */
static char *result[] = {
/* columns rows colors chars-per-pixel */
"64 64 228 2 ",
"   c #52664B",
".  c #89A369",
"X  c #4B5E47",
"o  c #566A4D",
"O  c #869F67",
"+  c #4F6249",
"@  c #829B65",
"#  c #8DA76B",
"$  c #91AB6D",
"%  c #596F51",
"&  c #5A6F51",
"*  c #90AC6F",
"=  c #91AC6F",
"-  c #52674D",
";  c #94B071",
":  c #5D7353",
">  c #5D7356",
",  c black",
"<  c #647C5A",
"1  c #566B4F",
"2  c #FFCB36",
"3  c #FFBD32",
"4  c #FFCC38",
"5  c #D6942D",
"6  c #FFC032",
"7  c #FFBC52",
"8  c #FFBB4F",
"9  c #FFB22E",
"0  c #526A4E",
"q  c #566E50",
"w  c #89A76C",
"e  c #8DAB6E",
"r  c #4F664C",
"t  c #C6892A",
"y  c #FFB12C",
"u  c #FFBA4D",
"i  c #5D7757",
"p  c #85A36A",
"a  c #8DAF72",
"s  c #552F1B",
"d  c #583721",
"f  c #512B19",
"g  c #567254",
"h  c #58331D",
"j  c #55331F",
"k  c #C8932A",
"l  c #FFCF59",
"z  c #FFCA53",
"x  c #603C24",
"c  c #89AB70",
"v  c #583B24",
"b  c #563821",
"n  c #AB0000",
"m  c #980000",
"M  c #5F4027",
"N  c #526E52",
"B  c #766456",
"V  c #54361D",
"C  c #67452A",
"Z  c #9E0000",
"A  c #5C3822",
"S  c #5A3C25",
"D  c #766354",
"F  c #786657",
"G  c #583A22",
"H  c #614128",
"J  c #B98827",
"K  c #5C3E26",
"L  c #3C2615",
"P  c #3E2716",
"I  c #3C2413",
"U  c #442B18",
"Y  c #DB982E",
"T  c #C18426",
"R  c #FFCA56",
"E  c #FFC053",
"W  c #FFD35A",
"Q  c #C68827",
"!  c #EBA231",
"~  c #3B2414",
"^  c #3D2615",
"/  c #FFBA32",
"(  c #FFB62F",
")  c #5A3822",
"_  c #786759",
"`  c #5D3D24",
"'  c #FFAD8F",
"]  c #F1A085",
"[  c #FFB091",
"{  c #FFBD9B",
"}  c #634329",
"|  c #462C19",
" . c #4B301B",
".. c #FFD59E",
"X. c #FFD19C",
"o. c #FFC492",
"O. c #FFF1B4",
"+. c #FFC893",
"@. c #FFC190",
"#. c #FFA98D",
"$. c #69462B",
"%. c #EF9D83",
"&. c #DC9079",
"*. c #FFE1A8",
"=. c #FFE5AA",
"-. c #FFD89F",
";. c #FFB999",
":. c #56341D",
">. c #503017",
",. c #6E4A2D",
"<. c #FAAC8F",
"1. c #FFD49E",
"2. c #8B0C00",
"3. c #6E0000",
"4. c #6B0000",
"5. c #890C00",
"6. c #8C1105",
"7. c #8A1004",
"8. c #7F0B00",
"9. c #820C00",
"0. c #730C02",
"q. c #961205",
"w. c #941104",
"e. c #891004",
"r. c #8D1105",
"t. c #87715F",
"y. c #52331A",
"u. c #8C1004",
"i. c #810C00",
"p. c #8F1104",
"a. c #660B02",
"s. c #690B02",
"d. c #8D1104",
"f. c #422917",
"g. c #5E3F27",
"h. c #5A3B23",
"j. c #6C0C02",
"k. c #5F0A02",
"l. c #840C00",
"z. c #620B02",
"x. c #654227",
"c. c #6A0C02",
"v. c #770A00",
"b. c #750A00",
"n. c #740A00",
"m. c #971205",
"M. c #780B00",
"N. c #6C0C03",
"B. c #5F3F25",
"V. c #8C0D00",
"C. c #8E0D00",
"Z. c #760D03",
"A. c #56371E",
"S. c #800E03",
"D. c #746153",
"F. c #7F6C5C",
"G. c #740C02",
"H. c #583621",
"J. c #587355",
"K. c #3D2212",
"L. c #A01305",
"P. c #391E10",
"I. c #87A46B",
"U. c #720900",
"Y. c #563420",
"T. c #90AF70",
"R. c #770D02",
"E. c #971204",
"W. c #567657",
"Q. c #FFE8AB",
"!. c #EC9981",
"~. c #41597E",
"^. c #2E405B",
"/. c #3C5375",
"(. c #2A3B54",
"). c #3C5275",
"_. c #3C5274",
"`. c #7D6959",
"'. c #2F415D",
"]. c #384C6D",
"[. c #27364D",
"{. c #2B3C56",
"}. c #384C6C",
"|. c #374B6B",
" X c #26354B",
".X c #3B5173",
"XX c #364A69",
"oX c #384D6D",
"OX c #3F567B",
"+X c #4B624A",
"@X c #334664",
"#X c #3D5376",
"$X c #394E6F",
"%X c #4E6A50",
"&X c #865A37",
"*X c #5F3C24",
"=X c #90B374",
"-X c #7F5535",
";X c #744E30",
":X c #714C2F",
">X c #99663D",
",X c #603820",
"<X c #597758",
"1X c #7D5434",
"2X c #64805D",
"3X c #597355",
"4X c #91AF70",
"5X c #9FC17D",
"6X c #8E5E39",
"7X c #8B5D38",
"8X c #905F39",
"9X c #99653D",
"0X c #98B473",
"qX c #97643C",
"wX c #A06A40",
"eX c #A46D42",
"rX c #9FBD7A",
"tX c #5F4028",
"yX c #94623B",
"uX c #8D5E39",
"iX c #92613A",
"pX c #533824",
"aX c #583B25",
"sX c #63432A",
"dX c #6A472D",
"fX c #5C3E27",
"gX c #617858",
"hX c #8DA86D",
/* pixels */
"  . X .   o o o o       o o o o o   o o   O O +   o   .     O @ O + o o o   o o o o o o     o o o o o   O @ @ O   o o o       o ",
"  O O O   o o o + # . . + o o o + #   o   . @ O . + + .     O @ O .   o   # + o o   o   # .         o   O @ O O   o   + . O #   ",
"  . @ O   o o   $ + + O .   o + . O   o o + . O O O O . % & * = - ; % :   . . +   #   o X # + . O #     O . X #   + . . @ . + o ",
"o + . O   o     + o   O O     . @ O   o o o     + . = > , , , , , , , , < 1 . . X .     # X   . . + o   . + o     # . X . + o o ",
"o o + #     # O . +   O .   + O @ .   o o o o     1 , , , 2 3 3 3 3 3 4 , , 1 . O O     O .   + + o o   #   o     +     #   o o ",
"o o o + o o + . @ . + # +   . @ . + o o       . . ; , 5 6 7 8 8 8 8 7 9 5 , : + . O     . . + . .   o o +   + . . # + o     o o ",
"o o   # + o o + O O + 0 q 0 w O + o q 0 e e r e + % , t y 8 u u u u 8 y t , i q r .   o     + O w 0 q 0 e O O O X + $ +   $ + o ",
"o o + O .   o   O p a s d d f a 0 g h d j j d s g i , k l z z z z z z l k , x d s a         e c f d d d f c p O #   + $   X #   ",
"o + . O O   o   a f j v v b v j d d v v v v v v d x , n m m m m m m m m n , M v v s N e e N s j v v v v v j s N 0 o   + + . .   ",
"  . . X #   o q s v v v b B V v v v M M M M M M M C , n Z Z Z Z Z Z Z Z n , C M M M x A A d v S S S S S S v v d h 0 # O O . + o ",
"  # + o   o o g d v v v b D F G S H , , , , , , , , , k J J J J J J J J k , , , , , , , , M K L P P P P P K v v d g + . . + o o ",
"    o o o o q h v v S S K I I P P U , Y T l R R R R R E E E E E E E E E E R R R R W Q ! , H ~ K S S S K P ^ K v v h q     o o   ",
".   o o o o q d S K L P P P K S S H , t / 9 9 9 9 9 9 3 3 3 3 3 3 3 3 3 3 9 9 9 ( T Y , C v S v v v v v S K ~ S v d q o o o   . ",
"O + o o o o q ) L ^ K S S S v v b M , Y t t t t t t 5 , , , , , , , , , , 5 t t 5 , , C v S S S S S S v v v S v v d q o o o + O ",
"O . + o o o 0 s S S v v v v v V _ ` , , , , , , , , , ' ] ] [ [ ] ] ] [ { , , , , , C S K P P P P P P K S S S v v d g o o + . O ",
"+ O .   o + # c s v v v v v b _ V S H } U |  ., ' ..X.o.o..., , ..o..., , O., C H H K P P P K S S K P P P P ^ S v v h q   . . + ",
"  O O     # X # N d v v v v v b S L P ^ K S H , ' +.@.@.@.o.' ] o.@.o.] ' .., H L P P P K S b v v v S S S S S v v v d q   . + o ",
"  . .     #   + q d v v S S S S S K K K S S H , , #.o.@.@.X., ] o.@.o.] , O., M S S S S b V _ b v v v v v v v v v v s q   #   o ",
"o     o   +   # r d v K L P P P P P P P P P P U $., X.@.@.o.%.&.o.X...&.' , C v v v v b B B V v S S S S S v v v v f a   o   o   ",
"  o o + . . + . a j S ~ K S S S S S S S S S S S M , *.o.@.@.o.o.*., , =.-., M v v v v v G G S K P P P P P K S v s c O + o o   . ",
"#   + . @ . + 0 s v b S v v v v S S S S S S S S M , , #.+.@.@.X., *.*., ;., M v v v v S L P P P P K S K P P ^ ) N O O .   o   . ",
"    # O . X $ 0 d V _ V v v v K L P P P P P P P K C , , #...o.@.X.o...;., , M v v v v v S S S S S v v v S S S d 0 . X #   o o   ",
"o o       o   g :._ >._ b v K ^ K S S S S S K P ^ S C , , , %.o.o.%., , , $.S S S S S S v v v v v v v v v v v d N #     o o o o ",
"          o q h v V _ V v S L P S v v v v v v S S v v C ,., <.1.1.<., ,.$.U P P P P P P K S S v v v v v v v v v h 0 o o         ",
"O O O O . + q d v v b S S S K K S S S S S S v v v M C , , 2.3.4.4.3.2., , , $.S S G K P P P P K S v v b v v v v d g o   # O O O ",
"@ @ @ O O # 0 h v v K L P P P P P P P P P P H M C , , , 5.6.7.7.7.7.6.8.9.0., C V _ b S S K P P ^ S V _ V v v v v h q   + . O @ ",
"O O O X     o g d S ~ K S S S S S S S S K U , , , 5.q.w.7.e.e.w.e.e.e.7.7.r.5., t.V v v v v S S S b _ y._ b v v v d r #     + . ",
"  + . . +   o q d v S v v v v v v v v v v H , 2.q.7.u.e.e.e.w., w.e.e.e.e.e.6.2., M S S S S S v v v b v b v v v v s e .   o o   ",
"  o + . . #   q d v v v v S S S v v S S S H , i.7.p.a.p.e.e.e.w.e.e.e.e.e.e.7.i., } L P P P ^ K S S S S S v v v d N +   o o     ",
"# +   +     o q h v v S K P P P K K P P P | , i.r.s., s.u.e.e.w.e.e.e.e.e.e.d.i., f.K S S S K L P P P P P K S v s w # + o   # . ",
"+ . O .   o o o g d S L P P g.P P P P h.K U , i.r.j., j.u.e.w., w.e.e.e.e.u.k.l., H v v v v v S S S S K P P ^ ) N # X $   o   + ",
"+ O @ O   o     q d v S S S v S S S G _ V H , i.r.j., j.r.7.7.w.7.7.7.7.7.d.z.l., H S S v v v v v v v v S S S d q +   +   o + . ",
". O O .   + # # 0 d S S S v v v v v v V _ x., i.r.c., c.v.b.n.m.n.b.b.b.b.M.N.l., U P ^ K v v v v v v v v v v d N . . . . + # O ",
"          # X + q ) L P P K v v v v S S B., , 8.6.9., m.7.7.q., q.7.7.7.6.i., V., H S K ^ K S v v v v v v v v v s a + X .       ",
"  o o   + O O # 0 d S K P ^ S v S K P P U , 2.6.7.i., w.e.e.e.w.e.e.e.e.7.i., C., M v G P P P K S S v v v v v v v s 0 . .   o   ",
"# +   . O @ . + g d v v S S v K L P P K H , i.7.7.i., w.e.e.e.w.e.e.e.e.7.i., Z., M b B A.K P P P ^ S v v v v v v h 0 # + o + # ",
"+ $ + O O . + q h v v v v v S ~ K S S v ` , i.7.7.2., w.e.e.w., w.e.e.e.7.i., S., C b D.D.b S K K K S S S S S v s g o   o   $ + ",
"o     # +   o q ) S S S S S v S v v v b F., i.7.w., G.u.e.e.e.w.e.e.e.e.7.i., , , , M V B b K L P P P P P P P H.a + o o o o   o ",
"      +   o o J.K.P P P P P S v S S S S B., 2.q.L., j.u.e.7.e.w.e.e.7.e.7.9., ' =., M v b S ~ K S S S S S K P P.I.#         o   ",
". O O O #   0 h S S S S K ^ S K L P P P U , , , , , j.u.7.U.m., q.6.U.7.u.c., ] .., H S S S K v v v v v v v S Y.a + + . O . + # ",
"+ . @ . +   T.j v v v v v S S ~ K S S S H , ' ..*., j.p.e.6.n.i.b.n.6.e.p.j., ' =., U P P P P K S v v b v v v v s r . @ @ .     ",
"  X . + o o 0 h v v v v v v v K S S S v M , %.+.X., R.s.m.w.q.q.q.q.w.E.s.R., , , , H S S K P P ^ S b _ V v v v j e O @ . + o   ",
"O O .   o o o W.d v S S S S K L P P P K M , Q.!.=., , , , , , , , , , , , , , C M M v v v S K K K S S A._ b v v d 0 X . + o   # ",
"O . +     o q h v S L P P P ^ K S K P ^ H , , , , , ~.^./.(./.^.)._.(./.^.~., M v v v S K P P P P P P P h.S S v h 0 # . + o o   ",
"      # . + 0 d v v S G S S S v v v S S b `.`.` C , '.(.].[.].{.(.].[.].(.'., M v v S L P P K S S S K P P P ^ ) N o + + # + o o ",
"o o o + O O w f v v V _ b v v S S S S S v b b v M , ^.}.|. X].'.'.]. X|.}.^., M v v v S S G v v v v v S S S S j e + # + O # + o ",
"o o     O @ @ a j b _ V v v K P P P P P K S S v M , .X|.XXoXOX, , OXoXXX|..X, M v v v v V _ b v v v v v v v v j w X . + # X $   ",
"o + $ + . @ O +Xd v b v v S L P K S K P P P ^ K M , _. XoX(.,  . ., (.oX X_., M v b v b _ V v v v v v v v v v j c . O +   o + o ",
"  $ X o + O @ w j v v v v v S S v v v S S S K ~ H , _.[.oX{., H H , {.oX[._., M b _ b v b v S S S S v v v v v v s r O #     #   ",
"o + $     O O p s v v v v v v v S S S S S S v S M , _.[.oX{., M M , {.oX[._., C S G S S S K L P P P K S S v v v d 0 # + o   #   ",
"      o   . X . N h v v v S S K P P P P P ^ K S H , _.[.oX{., ` M , {.oX[.].@X, | P P P P ^ K S K P P P P K v v d q       o +   ",
"O . + o   # + .   W.d v K L P P P K S S S K L P U , #X[.oX{., F.` , {.oX[.$X@X, U K S S S S v v v S S K P ^ S v d 0 + . # + # O ",
"@ @ . +   +   # 0 h v S ~ K S G G v v v v v S S H , {.[.oX{., B.H , {.oX[.{., $.K S S v v v v b b v v v S S v v s w . . + o + O ",
"O @ @ O . #   + g d v v S v V B D.b v v v v v v M , (.oX|.{., U U , {.|.oX(., U P P P K v v V B D.b v v v v v h %X# +   o o   . ",
"+ . O O X +   T.s v v v v b _ y.B b v v v v v v M , #X|._.'., H H , '._.|.#X, H S K P ^ S b _ y.B b v v v v d N $ + o   o o o   ",
"  + + . . #   r s v v v v v b v b v v v v v v v M , '.'., , , M M , , , '.'., M v v S S v v b v :.d j v v v h q   o + #   o     ",
"O . + + +     # a j v j d d j d v v d d j v v v C , , , , &X, M *X, &X, , , , C M M d d j j j h g 0 =Xf j s g o o   . O   + . O ",
"O O . . #   o   0 h f =X0 r e N h s g 0 =Xs d A , -X;X;X:X>X, ,X<X, >X:X;X;X1X, , , 2X3Xe p w 0   o + w p w + o o + O O + # @ O ",
"      + + o o o o 0 4X+   . .   0 e   o + q r 5X, :X6X7X8X9X, 3X0X, 9X8XqXqXqXwX9XeX, , > O . + # +   O @ O #     . @ O   + # + ",
"o o   . #   o o       o + # +   + . + + # + rX, tXyXuXiXpXtX, % % , tXtX, , , , tXaXsXdX, ; +   O . + . O X   o + . O O       o ",
"o     # + o o   # . +   $ + + . O @ O O . % , dXfXaXaXtX, , , ; 1 , , , rX% : gX, , , , , % o + O O   + . #     $ + + # + # + o ",
"  #       o o o + . . +   + . @ @ @ O . + : , , , , , , < % * @ . % 1 0XX o + . hX* 1 % : o   . O O   o + + o o   o o     O .   ",
"  .   + #   o o o + . # + # O O O . +   o   % % 0X% : % o   O @ O + $ X $ + # O O O . #   o   # X #     . . +   o o o o   . .   ",
"  . + . O   o o o o     o           o o   . .     o   #     O @ O     o   o             o o o   o   o   O @ O .   o o o o     o "
};
