/* XPM */
static char *result[] = {
/* columns rows colors chars-per-pixel */
"64 64 79 1 ",
"  c #52664B",
". c #89A369",
"X c #4B5E47",
"o c #566A4D",
"O c #869F67",
"+ c #4F6249",
"@ c #829B65",
"# c #8DA76B",
"$ c #91AB6D",
"% c #566E50",
"& c #526A4E",
"* c #89A76C",
"= c #8DAB6E",
"- c #4F664C",
"; c #567254",
": c #58331D",
"> c #583721",
", c #85A36A",
"< c #8DAF72",
"1 c #552F1B",
"2 c #512B19",
"3 c #55331F",
"4 c #583B24",
"5 c #89AB70",
"6 c #563821",
"7 c #526E52",
"8 c #766456",
"9 c #54361D",
"0 c #786759",
"q c #56341D",
"w c #5A3C25",
"e c #766354",
"r c #786657",
"t c #583A22",
"y c #52331A",
"u c #746153",
"i c #5C3E26",
"p c #3C2615",
"a c #3E2716",
"s c #3C2413",
"d c #3D2615",
"f c #3B2414",
"g c #5A3822",
"h c #503017",
"j c #5E3F27",
"k c #5A3B23",
"l c #56371E",
"z c #583621",
"x c #587355",
"c c #3D2212",
"v c #391E10",
"b c #87A46B",
"n c #563420",
"m c #90AF70",
"M c #5F4027",
"N c #614128",
"B c black",
"V c #67452A",
"C c #69462B",
"Z c #567657",
"A c #008019",
"S c #6E4A2D",
"D c #007717",
"F c #654227",
"G c #006F16",
"H c #006614",
"J c #674328",
"K c #007415",
"L c #006B14",
"P c #462C19",
"I c #4D2019",
"U c #007513",
"Y c #462417",
"T c #402917",
"R c #4B624A",
"E c #4E6A50",
"W c #90B374",
"Q c #552B18",
"! c #91AF70",
/* pixels */
" .X. oooo   ooooo oo OO+ o .  O@O+ooo oooooo  ooooo O@@O ooo   o",
" OOO ooo+#..+ooo+# o .@O.++.  O@O. o #+oo o #.    o O@OO o +.O# ",
" .@O oo $++O. o+.O oo+.OOOO.  OOX. o ..+ # oX#+.O#  O.X# +..@.+o",
"o+.O o  +o OO  .@O ooo  +..+o ..+# oo+..X.  #X ..+o .+o  #.X.+oo",
"oo+#  #O.+ O. +O@. oooo  + ooo  o oooo+.OO  O. ++oo # o  +  # oo",
"ooo+oo+.@.+#+ .@.+oo   ..# %%%oo%%%%%oo+.O  ..+.. oo+ +..#+o  oo",
"oo #+oo+OO+&%&*O+o%&==-=+ ;:>:;;:>>>:;%%-. o  +O*&%&=OOOX+$+ $+o",
"oo+O. o O,<1>>2<&;:>33>1;;:444>>44444>>>1<    =52>>>25,O# +$ X# ",
"o+.OO o <2344643>>444444>>44644444444444417==71344444317&o ++.. ",
" ..X# o%1444689444444444444909444444444446q33>4wwwwww44>:&#OO.+o",
" #+o oo;>4446ertwwwww4444460y064wwwwww446u8644ipaaaaai44>;+..+oo",
"  oooo%:44wwissaaaaadiww444646wipaaaaaiw68944wfiwwwiadi44:%  oo ",
". oooo%>wipaaaiwwwwwipadw4444wpdiwwwiaadit4444w44444wifw4>%ooo .",
"O+oooo%gpdiwww4464444www444444ww44444wwipdw44wwwwww444w44>%ooo+O",
"O.+ooo&1ww4444490644wwwwwwwww44444444444ww4wiaaaaaaiwww44>;oo+.O",
"+O. o+#5144444609wwipaaaaaaaaiww44444444wwiaaaiwwiaaaadw44:% ..+",
" OO  #X#7>444446wpadiwwwwwwiaaadw444444wpaaaiw6444wwwww444>% .+o",
" ..  # +%>44wwwwwiiiwwww4444wwww44444444wwww690644444444441% # o",
"o  o + #->4ipaaaaaaaaaadw44444444444444444468894wwwww44442< o o ",
" oo+..+.<3wfiwwwwwwwwwww44444444444444444444ttwiaaaaaiw415O+oo .",
"# +.@.+&146w4444wwwwwwww4444wwwwwww44444444wpaaaaiwiaadg7OO. o .",
"  #O.X$&>909444ipaaaaaaai44waaaaaaai44444444wwwww444www>&.X# oo ",
"oo   o ;q0h064idiwwwwwiadw4wdiwwwiadwwwwwwww44444444444>7#  oooo",
"     o%:49094wpaw444444ww444w444wwiiiaaaaaaaiww444444444:&oo    ",
"OOOO.+%>446wwwiiwwwwww444444444wpaaaaaiwwtiaaaaiw4464444>;o #OOO",
"@@@OO#&:44ipaaaaaaaaaai464444444wwwwww44906wwiaadw9094444:% +.O@",
"OOOX  o;>wfiwwwwwwwwiadt0944444444444446094444www60y06444>-#  +.",
" +..+ o%>4w4444444444ww4906444444444444464wwwww44464644441=. oo ",
" o+..# %>4444www44wwww4446444444444444444ipaaadiwwwww444>7+ oo  ",
"#+ +  o%:44wiaaaiiaaaaiww44444wwww444444wfiwwwipaaaaaiw41*#+o #.",
"+.O. ooo;>wpaajaaaakiaaadw44wiaaadiw44444w44444wwwwiaadg7#X$ o +",
"+O@O o  %>4www4wwwt09wwww44wpaaiwipdw44wwwww44444444www>%+ + o+.",
".OO. +##&>www444444906444444www444ww44wpaaadi4444444444>7....+#O",
"     #X+%gpaai4444wwtwwww44444444444444wwwwidiw4444444441<+X.   ",
" oo +OO#&>wiadw4wiaaaaaaai44444444444444444taaaiww44444441&.. o ",
"#+ .O@.+;>44ww4ipaaiwtwiadw444www44444444468liaaadw444444:&#+o+#",
"+$+OO.+%:44444wfiww49064ww44wiaaaiww44wwww6uu6wiiiwwwww41;o o $+",
"o  #+ o%gwwwww4w44460944444iaaajaaaaiwpaaaw986ipaaaaaaaz<+oooo o",
"   + ooxcaaaaaw4wwwwtww444wpaiw4wwiadwwwidw46wfiwwwwwiavb#    o ",
".OOO# &:wwwwidwipaaaaaai444ww444444ww4444iwwwwi4444444wn<++.O.+#",
"+.@.+ m344444wwfiwwwwiaaiw4MM444444M4wwwiaaaaaaiw44644441-.@@.  ",
" X.+oo&:4444444iwww444iaadNBBV4M44VBCpaaaaiwwiaadw6094443=O@.+o ",
"OO. oooZ>4wwwwipaaai464wwwMBABSBVVBABNwwww444wiiiwwl0644>&X.+o #",
"O.+  o%:4wpaaadiwiadt89444MBDDBABBDDBM44444wiaaaaaaakww4:&#.+oo ",
"   #.+&>44wtwww444ww6u86446FBDGHGGDBV44444wpaaiwwwiaaadg7o++#+oo",
"ooo+OO*24490644wwwww4664468rJBKHLKBCw444444wwt44444wwww3=+#+O#+o",
"oo  O@@<360944iaaaaaiww44wksaPIUIYPTaiw44444906444444443*X.+#X$ ",
"o+$+.@OR>4644wpaiwiaaadiwpaaiiaYaiiaTadw46460944444444435.O+ o+o",
" $Xo+O@*344444ww444wwwifwwww44www44wwww4606464wwww4444441-O#  # ",
"o+$  OO,14444444wwwwww4w4444446444444444wtwwwipaaaiww444>&#+o # ",
"   o .X.7:444wwiaaaaadiwww44460944444wwiaaaaadiwiaaaai44>%   o+ ",
"O.+o #+. Z>4ipaaaiwwwipaaai444906wwwiaaaaiwwww444wwiadw4>&+.#+#O",
"@@.+ + #&:4wfiwtt44444wwiadw4wwtipaaaajiiww444466444ww441*..+o+O",
"O@@O.# +;>44w498u64444444wwwipaadiwwwipaaaai4498u644444:E#+ oo .",
"+.OOX+ m1444460y864444444wipdiwww44444wwwiadw60y864444>7$+o ooo ",
" ++..# -1444446464444444wpdiw4444>>3444444ww4464q>3444:% o+# o  ",
"O.+++  #<343>>3>44>>34444wg>3344:;&<233>>4>>333:;&W231;oo .O +.O",
"OO..# o &:2W&-=7:1;&W1>331;&=<2:7  O***&;Q;-=,*& o+*,*+oo+OO+#@O",
"   ++oooo&!+ .. &= o+%-*,* o++!-#.+#++#  !+$XO.+#+ O@O#  .@O +#+",
"oo .# oo   o+#+ +.++#+#@@O+ #+  +#   o oo+ + #+ O.+.OX o+.OO   o",
"o  #+oo #.+ $++.O@OO. +.@@.+.#X#+ o+$ o +..#  o+OO +.#  $++#+#+o",
" #   ooo+..+ +.@@@O.+oo+OO.  +.@. +$Xo+.OOX+oo .OO o++oo oo  O. ",
" . +# ooo+.#+#OOO.+ o   #+  o O@O+$X$+#OOO.# o #X#  ..+ oooo .. ",
" .+.O oooo  o     oo ..  o #  O@O  o o      ooo o o O@O. oooo  o"
};
