/* XPM */
static char *result[] = {
/* columns rows colors chars-per-pixel */
"64 64 171 2 ",
"   c #52664B",
".  c #89A369",
"X  c #4B5E47",
"o  c #566A4D",
"O  c #869F67",
"+  c #4F6249",
"@  c #829B65",
"#  c #8DA76B",
"$  c #91AB6D",
"%  c #596B50",
"&  c #94AC70",
"*  c #5D6C52",
"=  c #001B06",
"-  c #617054",
";  c #001503",
":  c #647556",
">  c #5A6B50",
",  c #00200B",
"<  c #002B14",
"1  c #001E0A",
"2  c #004C23",
"3  c #5D6F52",
"4  c #9BB274",
"5  c #001101",
"6  c #001201",
"7  c #001C09",
"8  c #94AD70",
"9  c #00240E",
"0  c #004922",
"q  c #00210D",
"w  c #001807",
"e  c #001A08",
"r  c #000F02",
"t  c #007337",
"y  c #001806",
"u  c #00260F",
"i  c #004721",
"p  c #9FB676",
"a  c #00431F",
"s  c #006630",
"d  c #00220D",
"f  c #001909",
"g  c #006F35",
"h  c #006A32",
"j  c #001D0B",
"k  c #6B7A5B",
"l  c #004520",
"z  c #001F0C",
"x  c #00411E",
"c  c #00622E",
"v  c #001F0E",
"b  c #00632E",
"n  c #00210F",
"m  c #98AE72",
"M  c #002913",
"N  c #002712",
"B  c #002511",
"V  c #00602D",
"C  c #005C2B",
"Z  c #005B2B",
"A  c #006530",
"S  c #007437",
"D  c #001C0B",
"F  c #91A86E",
"G  c #005E2C",
"H  c #005A2A",
"J  c #90A86E",
"K  c #56674E",
"L  c #006631",
"P  c #8DA46C",
"I  c #00210A",
"U  c #737F60",
"Y  c #001C08",
"T  c #A2B779",
"R  c #001809",
"E  c #001706",
"W  c #001708",
"Q  c #687659",
"!  c #001304",
"~  c #001603",
"^  c #002411",
"/  c #002612",
"(  c #592E14",
")  c #002A14",
"_  c #532D14",
"`  c #492E15",
"'  c #552F15",
"]  c #2F190A",
"[  c #4B3015",
"{  c #29190A",
"}  c #4F2F15",
"|  c #2B1A0B",
" . c #4A2F15",
".. c #4D2D14",
"X. c #513015",
"o. c #2C1B0B",
"O. c #402810",
"+. c #4D2E14",
"@. c #002813",
"#. c #00230E",
"$. c #311A0B",
"%. c #412810",
"&. c #482D14",
"*. c #35190A",
"=. c #94AF73",
"-. c #261104",
";. c #422910",
":. c #592D14",
">. c #004620",
",. c #006B33",
"<. c #8DAA6E",
"1. c #442A11",
"2. c #2A190A",
"3. c #4D3116",
"4. c #002C15",
"5. c #00642F",
"6. c #566C50",
"7. c #270F01",
"8. c #472D14",
"9. c #311B0B",
"0. c #001A09",
"q. c #000F00",
"w. c #5C7758",
"e. c #281405",
"r. c #002710",
"t. c #98B172",
"y. c #00200C",
"u. c #597052",
"i. c #2A1506",
"p. c #5D7255",
"a. c #230B00",
"s. c #97B878",
"d. c #2D1C0B",
"f. c #241003",
"g. c #90B074",
"h. c #52684E",
"j. c #4E3116",
"k. c #2E1C0C",
"l. c #4F3217",
"z. c #1F0700",
"x. c #94B476",
"c. c #251004",
"v. c #432A11",
"b. c #442B11",
"n. c #2A1606",
"m. c #210900",
"M. c #90AE70",
"N. c #271204",
"B. c #2A1A0B",
"V. c #475A45",
"C. c #4E644C",
"Z. c #4B3016",
"A. c #3E270F",
"S. c #93B476",
"D. c #251104",
"F. c #1D0500",
"G. c #556F54",
"H. c #4C3016",
"J. c #250E00",
"K. c #412910",
"L. c #89A66C",
"P. c #250C00",
"I. c #3F270F",
"U. c #281205",
"Y. c #2F1D0C",
"T. c #291001",
"R. c #597356",
"E. c #250A00",
"W. c #2C1707",
"Q. c #210800",
"!. c #220600",
/* pixels */
"  . X .   o o o o       o o o o o   o o   O O +   o   .     O @ O + o o o   o o o o o o     o o o o o   O @ @ O   o o o       o ",
"  O O O   o o o + # . . + o o o + #   o   . @ O . + + .     O @ O .   o   # + o o   o   # .         o   O @ O O   o   + . O #   ",
"  . @ O   o o   $ + + O .   o + . O   o o + . O O O O . %   O O X &   o   . . +   #   o X # + . O #     O . X #   + . . @ . + o ",
"o + . O   o     + o   O O     . @ O   o o o %   + . . * = - . . - ; : o o + . . X &     # X > . . + o   . + o     # . X . + o o ",
"o o + #     # O . +   O .   + O @ .   o o : = :   + - , < , - % 1 2 1 3 o o + . 4 5 :   O 4 6 - + o o   #   o     +     #   o o ",
"o o o + o o + . @ . + # +   . @ . + o o : , < 7 8 & 7 < < < , : 9 0 q :   o o - w 2 e - 4 r t y 8   o o +   + . . # + o     o o ",
"o o   # + o o + O O +   o + O O + o o : , < < u % - u < < < u : 9 i 0 w p % : 7 0 a s d f g h j 4 % 3 > . O O O X + $ +   $ + o ",
"o o + O .   o   O O .     . @ O + o 3 , < < < u : , < < < < u k 9 i l 0 z 9 q 0 l x c v b s h n j q q y m O O O #   + $   X #   ",
"o + . O O   o   . X . +   . O O #   > u < < < u k u < < M M M 9 N i l i B 0 i l x V C V Z s A h h h h S 6 %       o   + + . .   ",
"  . . X #   o   # + . #       + + + 8 d < < < < u < < N 0 i i i i l l l i l a x V C C C Z s A A A A g D -   o o o   # O O . + o ",
"  # + o   o o o             + . O O F 7 < < < < < < M 0 l l l l l l l l a x V G C C C C H s A A h g n w J .   o o o + . . + o o ",
"    o o o o o o + #     # O O @ @ O K k u < < < < < M i l l l l l l l x V G C C C C C Z L A A h n j w m @ .   o o o o     o o   ",
".   o o o o o   . O   o + . @ @ O m 7 u < < < M M M N i l a a a a a x V C C C C C C C Z s A A h j m P @ O + o o o o o o o o   . ",
"O + o o o o o + O .   o   X O . K 7 < < < < M 0 i i i l a V G G G G G C C C C C C C C H s A A h j m P @ O   o     o o o o o + O ",
"O . + o o o + . O +     # J F + 3 u < < < < M i l l l l a G C C C C C C C C C C C Z H L A A A h n j w P .   + . .   o o o + . O ",
"+ O .   o + # @ . + # + - 7 7 : : I < < < M N i l l l l x G C C C C C C C C C Z H L s A A A A A h g j J +   # @ .   o o   . . + ",
"  O O     # X # +   O J 7 < < u , U u < N 0 i l l l a x V C C C C C C C C Z H L s A A A A A A A A h j 4 % 3 + # + o o o   . + o ",
"  . .     #   + o   O P d < < < < u < M 0 l l l l x V G C C C C C C C Z H L s A A A A A A A A A A h n j q Y :   o o   o   #   o ",
"o     o   +   # +   . P w < < < < < < M i l l l x V C C C C C C C Z H L s A A A A A A A A A A A A A h h h S 6 3 o + #   o   o   ",
"  o o + . . + . #   + . m w < < < < < M i l l a V C C C C C C Z H L s A A A A A A A A A A A A A A A A A g r 4     . O + o o   . ",
"#   + . @ . +     o   X O T d < < < < N i l l x G C C C C C H L s A A A A A A A A A A A A A A A A A A h R m O +   O O .   o   . ",
"    # O . X $   o   8 J m w < < < M N 0 l l x V C C C C C H L A A A A A A A A A A A A A A A A A A A A h j J @ . + . X #   o o   ",
"o o       o   o o : 7 d d < < < N 0 i l l a V C C C C C Z L A A A A A A A A A A A A A A A A A A A A A g Y K . . + #     o o o o ",
"          o o o 3 , < < < < < M 0 l l l l a G C C C C C Z L A A A A A A A A A A A A A A A A A A A A g E - o     o   o o         ",
"O O O O . + o o 3 u < < < < < M i l l l l a G C C C C C C H s A A A A A A A A A A A A A A A A A A h W Q # + o o o   o   # O O O ",
"@ @ @ O O #   o > Y < < < < < N i l l l l a G C C C C C C Z L A A A A A A A A A A A A A A A A A A A g ! m #   o + #     + . O @ ",
"O O O X     o   . T d < < < M 0 l l l l l a G C C C C C C C H L s A A A A A A A A A A A A A A A A A A g ! -     # . X #     + . ",
"  + . . +   o   4 w < < < < N i l l l l l a V C C C C C C C C Z H L s A A A A A A A A A A A A A A A A A g y 8 + + + # .   o o   ",
"  o + . . #   : 7 < < < < M 0 l l l l l l l x V C C C C C C C C C Z H L s s A A A A A A A A A A A A A A g y J O . + +   o o     ",
"# +   +     3 , < < < < < M i l l l l l l l l x V G G C C C C C C C C Z Z H L A A A A A A A A A A A A h D : + O O O # + o   # . ",
"+ . O .   o 3 u < < < < < M 0 l l l l l l l l l a a x V C C C C C C C C C C H L A A A A A A A A A A A h q 3   # X # X $   o   + ",
"+ O @ O   o > Y < < < < < < N 0 l l l l l l l l l l l x V G C C C C C C C C C H L A A A A A A A A A A h D : o   o +   +   o + . ",
". O O .   + # 4 7 < < < < < < N 0 i i l l l l l l l i l a x V C C C C C C C C C H L A A A A A A A A h h S ~ 3 o   . . . . + # O ",
"          # X + : u < < < < < < M M N 0 l l l l l 0 ^ 0 l l x G C C C C C C C C C H L A A A A A A h n q Y : o o   # + X .       ",
"  o o   + O O # % u < < < < < < < < < N 0 l i i 0 / ( / 0 l a V C C C C C C C C C C H L A A A A A h D k %   o o o     . .   o   ",
"# +   . O @ . + 3 I < < d u d < < < < < N 2 N M ) _ ` _ / 0 l x G C C C C C C C C C C H s A A A A A S 6 J .   o   o   # + o + # ",
"+ $ + O O . + o o - I 7 4 K 4 7 d d < < < M < ' ] [ { ` _ / i a V G C C C C C C C C C Z s A A A A h D * O O   + #   o   o   $ + ",
"o     # +   o o   # K % # + # K 8 m w < < < < } | [ |  ...M 0 l a x V C C C C C C C C Z s A A A A g j J @ . + . O + o o o o   o ",
"      +   o o o   O .       + o + . 4 w < < < X.| [ o.O.+.< @.0 i l x V C C C C C C C Z L A A A h n 7 P . +   O @ #         o   ",
". O O O #         . O     # # + o   + p w d #.$.| [ o.%.&.X.*.) N 0 i a V C C C C C C C H L A A g Y - # + o   . . + + . O . + # ",
"+ . @ . +   # . + + #       + #   o o + 8 P =.-.[ ` o.;. .| | X.:.M M N >.c G C C C C C C H ,.g D : o   o o o     + . @ @ .     ",
"  X . + o o + . .   + + #   + .       o + . <.-.` ` | o.1.2.3.] 4.< < < 9 B >.c V V G G C 5.f / Y 3 o     o o o + # O @ . + o   ",
"O O .   o o o + # + # . . + # . X . . + o   6.7.[ 8.[ | o.[ ` 9.4.< u Y k I M N N B i a 5.0.T q.p     . . + o   $ + X . + o   # ",
"O . +     o o o   o       o + X . @ @ . + o o w.e.` ` [ { ` ` 9.r.I - t.  : I u u < M N i y.m J + o   O @ #   o     # . + o o   ",
"      # . +   o o o o o o   # O @ O @ @ . + o u.i.[ { ` ` 8.` i.p.% o   o o 3 % - Y < M 2 M w &   o   . O X o o   o + + # + o o ",
"o o o + O O . + o o o     o + . . X O @ O . + u.a.3.| [ ` 8.` -.<.. +   o o + . O m 7 u M < Y %   o o + . #     # + # + O # + o ",
"o o     O @ @ #   o + # #   o       O O X . # + s.-.d.o.| [ [ f.g.@ . .     . O @ O % - Y 7 4 X $   o o + +     . X . + # X $   ",
"o + $ + . @ O X o   # X + o o o     . O + +   o h.a.j.;.k.o.| l.z.<.X .   + # X O . + # J K . # + o o   . O . + . . O +   o + o ",
"  $ X o + O @ .     O O #   o + #   + . . #     # x.c.v.o.b.o.d.-.x.+ # + $ +   # + o X # + + +   o o   O @ .     + O #     #   ",
"o + $     O O O     . . + o   # . + o         o + h.n.v.o.v.v.o.3.m.w.  o + o o       $ X # O O .   o + O O + o o   # + o   #   ",
"      o   . X .   o     o o     + $   o o + $ X . M.N.v.o.B.v.2.` [ 7.6.+ #   o + $ +   o + O @ . +   . O O   o o o       o +   ",
"O . + o   # + .     o o o   # + o   o o   $ V.. . C.a.v.%.Z.A. .` ` f.S.O .     # X $   o   O O X $ + . X .   o o   + . # + # O ",
"@ @ . +   +   # + # + o o   O . +     o o X . . V.. x.D.%.A. .` { [ [ F.x.+ o   #   + o o   . . + +   # X .   o   . . . + o + O ",
"O @ @ O . #   + + O . + o   O @ O O .     # . V.. . G.e. .H.{ H.| { ` [ a.u.o o     #   o o   + # #   + # .   o + # +   o o   . ",
"+ . O O X +   # . O @ .     . @ @ O .       + . <.G.J.[ [ | o.O.H.` ` ` e.w.  o o   .   o o   o       o     o   $ + o   o o o   ",
"  + + . . #   + + X O O   o + . O X   + # + 6.x.z.e.[ ` { o.v.K.2.[ { [ [ a.M.  o + .   o + #   o   # +   o o o   o + #   o     ",
"O . + + +     # . . @ O   o   + . # + M.L.x.P.-.3.[ ` ` [  .I. .| [ | | [ f.x.6.  . .   + . O   o   . O . + o o o   . O   + . O ",
"O O . . #   o     + O .   + #   6.6.w.P.U.U.Y.U.-.-.i.i.| H.A. .{ [ 3.| [ 3.-.T.R.M.h.6.M.L.O     o + O @ . + o o + O O + # @ O ",
"      + + o o o o   # +   . . 6.E.P.T.W.U.W.Q.g.L.<.6.w.P.e.H.` 3.| i.W.i.i.W.W.W.U.W.W.U.Q.x.+ # +   O @ O #     . @ O   + # + ",
"o o   . #   o o       o + # +   h.M.h.h.M.h.M.@ @ O +   M.G.7.d.i.T.w.u.6.u.u.w.T.U.U.U.W.W.!.6.O . + . O X   o + . O O       o ",
"o     # + o o   # . +   $ + + . O @ O O .   + . @ @ . + . # G.!.R.u.o + $   o   h.<.<.M.6.u.u.+ O O   + . #     $ + + # + # + o ",
"  #       o o o + . . +   + . @ @ @ O . + o o + O O .     + . L..   + $ X o + . O O X + o o   . O O   o + + o o   o o     O .   ",
"  .   + #   o o o + . # + # O O O . +   o       # +     o   O @ O + $ X $ + # O O O . #   o   # X #     . . +   o o o o   . .   ",
"  . + . O   o o o o     o           o o   . .     o   #     O @ O     o   o             o o o   o   o   O @ O .   o o o o     o "
};
